<mxfile host="app.diagrams.net" agent="Mozilla/5.0 (Windows NT 10.0; Win64; x64) AppleWebKit/537.36 (KHTML, like Gecko) Chrome/130.0.0.0 Safari/537.36" version="24.8.6" pages="2">
  <diagram name="Page-1" id="Ij38dBvqHwBoTtBHAxQm">
    <mxGraphModel dx="3112" dy="1469" grid="1" gridSize="10" guides="1" tooltips="1" connect="1" arrows="1" fold="1" page="1" pageScale="1" pageWidth="850" pageHeight="1100" math="0" shadow="0">
      <root>
        <mxCell id="0" />
        <mxCell id="1" parent="0" />
        <UserObject label="" plantUmlData="{&#xa;  &quot;data&quot;: &quot;@startuml\npackage mist4600 {\n\n    class MenuInitializationDatabase {\n        +initializeMenuDatabase(): void\n    }\n\n    class CubanSandwich {\n        +CubanSandwich(name: String, desiredStockLevel: int, currentStockLevel: int, inStock: boolean, price: double, meatType: String)\n    }\n\n    class MenuItem {\n        +MenuItem(name: String, desiredStockLevel: int, currentStockLevel: int, inStock: boolean, price: double)\n    }\n\n    MenuInitializationDatabase ..&gt; CubanSandwich : uses\n    MenuInitializationDatabase ..&gt; MenuItem : uses\n}\n@enduml\n&quot;,&#xa;  &quot;format&quot;: &quot;svg&quot;&#xa;}" id="fWNX3ebg49ibDspfP-_P-3">
          <mxCell style="shape=image;noLabel=1;verticalAlign=top;aspect=fixed;imageAspect=0;image=data:image/svg+xml,PD94bWwgdmVyc2lvbj0iMS4wIiBlbmNvZGluZz0idXMtYXNjaWkiIHN0YW5kYWxvbmU9Im5vIj8+PHN2ZyB4bWxucz0iaHR0cDovL3d3dy53My5vcmcvMjAwMC9zdmciIHhtbG5zOnhsaW5rPSJodHRwOi8vd3d3LnczLm9yZy8xOTk5L3hsaW5rIiBjb250ZW50U3R5bGVUeXBlPSJ0ZXh0L2NzcyIgaGVpZ2h0PSIyNjNweCIgcHJlc2VydmVBc3BlY3RSYXRpbz0ibm9uZSIgc3R5bGU9IndpZHRoOjE3NDVweDtoZWlnaHQ6MjYzcHg7YmFja2dyb3VuZDojRkZGRkZGOyIgdmVyc2lvbj0iMS4xIiB2aWV3Qm94PSIwIDAgMTc0NSAyNjMiIHdpZHRoPSIxNzQ1cHgiIHpvb21BbmRQYW49Im1hZ25pZnkiPjxkZWZzLz48Zz48IS0tY2x1c3RlciBtaXN0NDYwMC0tPjxnIGlkPSJjbHVzdGVyX21pc3Q0NjAwIj48cGF0aCBkPSJNOC41LDYgTDY2LjUsNiBBMy43NSwzLjc1IDAgMCAxIDY5LDguNSBMNzYsMjYuOTg0NCBMMTczNS41LDI2Ljk4NDQgQTIuNSwyLjUgMCAwIDEgMTczOCwyOS40ODQ0IEwxNzM4LDI1My41IEEyLjUsMi41IDAgMCAxIDE3MzUuNSwyNTYgTDguNSwyNTYgQTIuNSwyLjUgMCAwIDEgNiwyNTMuNSBMNiw4LjUgQTIuNSwyLjUgMCAwIDEgOC41LDYgIiBmaWxsPSJub25lIiBzdHlsZT0ic3Ryb2tlOiMwMDAwMDA7c3Ryb2tlLXdpZHRoOjEuNTsiLz48bGluZSBzdHlsZT0ic3Ryb2tlOiMwMDAwMDA7c3Ryb2tlLXdpZHRoOjEuNTsiIHgxPSI2IiB4Mj0iNzYiIHkxPSIyNi45ODQ0IiB5Mj0iMjYuOTg0NCIvPjx0ZXh0IGZpbGw9IiMwMDAwMDAiIGZvbnQtZmFtaWx5PSJzYW5zLXNlcmlmIiBmb250LXNpemU9IjE0IiBmb250LXdlaWdodD0iYm9sZCIgbGVuZ3RoQWRqdXN0PSJzcGFjaW5nIiB0ZXh0TGVuZ3RoPSI1NyIgeD0iMTAiIHk9IjIxLjIzNDQiPm1pc3Q0NjAwPC90ZXh0PjwvZz48IS0tY2xhc3MgTWVudUluaXRpYWxpemF0aW9uRGF0YWJhc2UtLT48ZyBpZD0iZWxlbV9NZW51SW5pdGlhbGl6YXRpb25EYXRhYmFzZSI+PHJlY3QgY29kZUxpbmU9IjMiIGZpbGw9IiNGMUYxRjEiIGhlaWdodD0iNjIuOTg0NCIgaWQ9Ik1lbnVJbml0aWFsaXphdGlvbkRhdGFiYXNlIiByeD0iMi41IiByeT0iMi41IiBzdHlsZT0ic3Ryb2tlOiMxODE4MTg7c3Ryb2tlLXdpZHRoOjAuNTsiIHdpZHRoPSIyMzgiIHg9Ijc5MyIgeT0iMzkiLz48ZWxsaXBzZSBjeD0iODE4LjgiIGN5PSI1NSIgZmlsbD0iI0FERDFCMiIgcng9IjExIiByeT0iMTEiIHN0eWxlPSJzdHJva2U6IzE4MTgxODtzdHJva2Utd2lkdGg6MS4wOyIvPjxwYXRoIGQ9Ik04MTYuNDI1LDU5LjI1IEw4MTYuNDI1LDYxIEw4MjEuMzYyNSw2MSBMODIxLjM2MjUsNTkuMjUgTDgxNi40MjUsNTkuMjUgWiBNODE3LjExMjUsNTkuOTM3NSBRODE3LjExMjUsNTkuOTM3NSA4MTcuMTEyNSw1MC43NSBMODE1LjM2MjUsNTAuNzUgUTgxNS4zNjI1LDUwLjc1IDgxNS4zNjI1LDU5LjkzNzUgTDgxNy4xMTI1LDU5LjkzNzUgWiBNODIwLjY3NSw1OS45Mzc1IEw4MjIuNDI1LDU5LjkzNzUgUTgyMi40MjUsNTkuOTM3NSA4MjIuNDI1LDU3LjEyNSBMODIwLjY3NSw1Ny4xMjUgUTgyMC42NzUsNTcuMTI1IDgyMC42NzUsNTkuOTM3NSBaIE04MjAuNjc1LDUwLjc1IFE4MjAuNjc1LDUwLjc1IDgyMC42NzUsNTMuNTYyNSBMODIyLjQyNSw1My41NjI1IFE4MjIuNDI1LDUzLjU2MjUgODIyLjQyNSw1MC43NSBMODIwLjY3NSw1MC43NSBaIE04MTYuNDI1LDUxLjQzNzUgTDgyMS4zNjI1LDUxLjQzNzUgTDgyMS4zNjI1LDQ5LjY4NzUgTDgxNi40MjUsNDkuNjg3NSBMODE2LjQyNSw1MS40Mzc1IFogIiBmaWxsPSIjMDAwMDAwIi8+PHRleHQgZmlsbD0iIzAwMDAwMCIgZm9udC1mYW1pbHk9InNhbnMtc2VyaWYiIGZvbnQtc2l6ZT0iMTQiIGxlbmd0aEFkanVzdD0ic3BhY2luZyIgdGV4dExlbmd0aD0iMTgyIiB4PSI4MzUuMiIgeT0iNjAuNzQyMiI+TWVudUluaXRpYWxpemF0aW9uRGF0YWJhc2U8L3RleHQ+PGxpbmUgc3R5bGU9InN0cm9rZTojMTgxODE4O3N0cm9rZS13aWR0aDowLjU7IiB4MT0iNzk0IiB4Mj0iMTAzMCIgeTE9IjcxIiB5Mj0iNzEiLz48bGluZSBzdHlsZT0ic3Ryb2tlOiMxODE4MTg7c3Ryb2tlLXdpZHRoOjAuNTsiIHgxPSI3OTQiIHgyPSIxMDMwIiB5MT0iNzkiIHkyPSI3OSIvPjxlbGxpcHNlIGN4PSI4MDQiIGN5PSI5MS45OTIyIiBmaWxsPSIjODRCRTg0IiByeD0iMyIgcnk9IjMiIHN0eWxlPSJzdHJva2U6IzAzODA0ODtzdHJva2Utd2lkdGg6MS4wOyIvPjx0ZXh0IGZpbGw9IiMwMDAwMDAiIGZvbnQtZmFtaWx5PSJzYW5zLXNlcmlmIiBmb250LXNpemU9IjE0IiBsZW5ndGhBZGp1c3Q9InNwYWNpbmciIHRleHRMZW5ndGg9IjIxMiIgeD0iODEzIiB5PSI5Ni4yMzQ0Ij5pbml0aWFsaXplTWVudURhdGFiYXNlKCk6IHZvaWQ8L3RleHQ+PC9nPjwhLS1jbGFzcyBDdWJhblNhbmR3aWNoLS0+PGcgaWQ9ImVsZW1fQ3ViYW5TYW5kd2ljaCI+PHJlY3QgY29kZUxpbmU9IjciIGZpbGw9IiNGMUYxRjEiIGhlaWdodD0iNjIuOTg0NCIgaWQ9IkN1YmFuU2FuZHdpY2giIHJ4PSIyLjUiIHJ5PSIyLjUiIHN0eWxlPSJzdHJva2U6IzE4MTgxODtzdHJva2Utd2lkdGg6MC41OyIgd2lkdGg9IjkxMyIgeD0iMjIuNSIgeT0iMTc3Ii8+PGVsbGlwc2UgY3g9IjQyOC43NSIgY3k9IjE5MyIgZmlsbD0iI0FERDFCMiIgcng9IjExIiByeT0iMTEiIHN0eWxlPSJzdHJva2U6IzE4MTgxODtzdHJva2Utd2lkdGg6MS4wOyIvPjxwYXRoIGQ9Ik00MjYuMzc1LDE5Ny4yNSBMNDI2LjM3NSwxOTkgTDQzMS4zMTI1LDE5OSBMNDMxLjMxMjUsMTk3LjI1IEw0MjYuMzc1LDE5Ny4yNSBaIE00MjcuMDYyNSwxOTcuOTM3NSBRNDI3LjA2MjUsMTk3LjkzNzUgNDI3LjA2MjUsMTg4Ljc1IEw0MjUuMzEyNSwxODguNzUgUTQyNS4zMTI1LDE4OC43NSA0MjUuMzEyNSwxOTcuOTM3NSBMNDI3LjA2MjUsMTk3LjkzNzUgWiBNNDMwLjYyNSwxOTcuOTM3NSBMNDMyLjM3NSwxOTcuOTM3NSBRNDMyLjM3NSwxOTcuOTM3NSA0MzIuMzc1LDE5NS4xMjUgTDQzMC42MjUsMTk1LjEyNSBRNDMwLjYyNSwxOTUuMTI1IDQzMC42MjUsMTk3LjkzNzUgWiBNNDMwLjYyNSwxODguNzUgUTQzMC42MjUsMTg4Ljc1IDQzMC42MjUsMTkxLjU2MjUgTDQzMi4zNzUsMTkxLjU2MjUgUTQzMi4zNzUsMTkxLjU2MjUgNDMyLjM3NSwxODguNzUgTDQzMC42MjUsMTg4Ljc1IFogTTQyNi4zNzUsMTg5LjQzNzUgTDQzMS4zMTI1LDE4OS40Mzc1IEw0MzEuMzEyNSwxODcuNjg3NSBMNDI2LjM3NSwxODcuNjg3NSBMNDI2LjM3NSwxODkuNDM3NSBaICIgZmlsbD0iIzAwMDAwMCIvPjx0ZXh0IGZpbGw9IiMwMDAwMDAiIGZvbnQtZmFtaWx5PSJzYW5zLXNlcmlmIiBmb250LXNpemU9IjE0IiBsZW5ndGhBZGp1c3Q9InNwYWNpbmciIHRleHRMZW5ndGg9IjkyIiB4PSI0NDkuMjUiIHk9IjE5OC43NDIyIj5DdWJhblNhbmR3aWNoPC90ZXh0PjxsaW5lIHN0eWxlPSJzdHJva2U6IzE4MTgxODtzdHJva2Utd2lkdGg6MC41OyIgeDE9IjIzLjUiIHgyPSI5MzQuNSIgeTE9IjIwOSIgeTI9IjIwOSIvPjxsaW5lIHN0eWxlPSJzdHJva2U6IzE4MTgxODtzdHJva2Utd2lkdGg6MC41OyIgeDE9IjIzLjUiIHgyPSI5MzQuNSIgeTE9IjIxNyIgeTI9IjIxNyIvPjxlbGxpcHNlIGN4PSIzMy41IiBjeT0iMjI5Ljk5MjIiIGZpbGw9IiM4NEJFODQiIHJ4PSIzIiByeT0iMyIgc3R5bGU9InN0cm9rZTojMDM4MDQ4O3N0cm9rZS13aWR0aDoxLjA7Ii8+PHRleHQgZmlsbD0iIzAwMDAwMCIgZm9udC1mYW1pbHk9InNhbnMtc2VyaWYiIGZvbnQtc2l6ZT0iMTQiIGxlbmd0aEFkanVzdD0ic3BhY2luZyIgdGV4dExlbmd0aD0iODg3IiB4PSI0Mi41IiB5PSIyMzQuMjM0NCI+Q3ViYW5TYW5kd2ljaChuYW1lOiBTdHJpbmcsIGRlc2lyZWRTdG9ja0xldmVsOiBpbnQsIGN1cnJlbnRTdG9ja0xldmVsOiBpbnQsIGluU3RvY2s6IGJvb2xlYW4sIHByaWNlOiBkb3VibGUsIG1lYXRUeXBlOiBTdHJpbmcpPC90ZXh0PjwvZz48IS0tY2xhc3MgTWVudUl0ZW0tLT48ZyBpZD0iZWxlbV9NZW51SXRlbSI+PHJlY3QgY29kZUxpbmU9IjExIiBmaWxsPSIjRjFGMUYxIiBoZWlnaHQ9IjYyLjk4NDQiIGlkPSJNZW51SXRlbSIgcng9IjIuNSIgcnk9IjIuNSIgc3R5bGU9InN0cm9rZTojMTgxODE4O3N0cm9rZS13aWR0aDowLjU7IiB3aWR0aD0iNzUxIiB4PSI5NzAuNSIgeT0iMTc3Ii8+PGVsbGlwc2UgY3g9IjEzMTMuMjUiIGN5PSIxOTMiIGZpbGw9IiNBREQxQjIiIHJ4PSIxMSIgcnk9IjExIiBzdHlsZT0ic3Ryb2tlOiMxODE4MTg7c3Ryb2tlLXdpZHRoOjEuMDsiLz48cGF0aCBkPSJNMTMxMC44NzUsMTk3LjI1IEwxMzEwLjg3NSwxOTkgTDEzMTUuODEyNSwxOTkgTDEzMTUuODEyNSwxOTcuMjUgTDEzMTAuODc1LDE5Ny4yNSBaIE0xMzExLjU2MjUsMTk3LjkzNzUgUTEzMTEuNTYyNSwxOTcuOTM3NSAxMzExLjU2MjUsMTg4Ljc1IEwxMzA5LjgxMjUsMTg4Ljc1IFExMzA5LjgxMjUsMTg4Ljc1IDEzMDkuODEyNSwxOTcuOTM3NSBMMTMxMS41NjI1LDE5Ny45Mzc1IFogTTEzMTUuMTI1LDE5Ny45Mzc1IEwxMzE2Ljg3NSwxOTcuOTM3NSBRMTMxNi44NzUsMTk3LjkzNzUgMTMxNi44NzUsMTk1LjEyNSBMMTMxNS4xMjUsMTk1LjEyNSBRMTMxNS4xMjUsMTk1LjEyNSAxMzE1LjEyNSwxOTcuOTM3NSBaIE0xMzE1LjEyNSwxODguNzUgUTEzMTUuMTI1LDE4OC43NSAxMzE1LjEyNSwxOTEuNTYyNSBMMTMxNi44NzUsMTkxLjU2MjUgUTEzMTYuODc1LDE5MS41NjI1IDEzMTYuODc1LDE4OC43NSBMMTMxNS4xMjUsMTg4Ljc1IFogTTEzMTAuODc1LDE4OS40Mzc1IEwxMzE1LjgxMjUsMTg5LjQzNzUgTDEzMTUuODEyNSwxODcuNjg3NSBMMTMxMC44NzUsMTg3LjY4NzUgTDEzMTAuODc1LDE4OS40Mzc1IFogIiBmaWxsPSIjMDAwMDAwIi8+PHRleHQgZmlsbD0iIzAwMDAwMCIgZm9udC1mYW1pbHk9InNhbnMtc2VyaWYiIGZvbnQtc2l6ZT0iMTQiIGxlbmd0aEFkanVzdD0ic3BhY2luZyIgdGV4dExlbmd0aD0iNTciIHg9IjEzMzMuNzUiIHk9IjE5OC43NDIyIj5NZW51SXRlbTwvdGV4dD48bGluZSBzdHlsZT0ic3Ryb2tlOiMxODE4MTg7c3Ryb2tlLXdpZHRoOjAuNTsiIHgxPSI5NzEuNSIgeDI9IjE3MjAuNSIgeTE9IjIwOSIgeTI9IjIwOSIvPjxsaW5lIHN0eWxlPSJzdHJva2U6IzE4MTgxODtzdHJva2Utd2lkdGg6MC41OyIgeDE9Ijk3MS41IiB4Mj0iMTcyMC41IiB5MT0iMjE3IiB5Mj0iMjE3Ii8+PGVsbGlwc2UgY3g9Ijk4MS41IiBjeT0iMjI5Ljk5MjIiIGZpbGw9IiM4NEJFODQiIHJ4PSIzIiByeT0iMyIgc3R5bGU9InN0cm9rZTojMDM4MDQ4O3N0cm9rZS13aWR0aDoxLjA7Ii8+PHRleHQgZmlsbD0iIzAwMDAwMCIgZm9udC1mYW1pbHk9InNhbnMtc2VyaWYiIGZvbnQtc2l6ZT0iMTQiIGxlbmd0aEFkanVzdD0ic3BhY2luZyIgdGV4dExlbmd0aD0iNzI1IiB4PSI5OTAuNSIgeT0iMjM0LjIzNDQiPk1lbnVJdGVtKG5hbWU6IFN0cmluZywgZGVzaXJlZFN0b2NrTGV2ZWw6IGludCwgY3VycmVudFN0b2NrTGV2ZWw6IGludCwgaW5TdG9jazogYm9vbGVhbiwgcHJpY2U6IGRvdWJsZSk8L3RleHQ+PC9nPjwhLS1saW5rIE1lbnVJbml0aWFsaXphdGlvbkRhdGFiYXNlIHRvIEN1YmFuU2FuZHdpY2gtLT48ZyBpZD0ibGlua19NZW51SW5pdGlhbGl6YXRpb25EYXRhYmFzZV9DdWJhblNhbmR3aWNoIj48cGF0aCBjb2RlTGluZT0iMTUiIGQ9Ik04MTQuODMsMTAyLjAyIEM3NDMuNjQsMTI0LjM4IDY1My4xNDQ0LDE1Mi44MDIzIDU4MS45NDQ0LDE3NS4xNjIzICIgZmlsbD0ibm9uZSIgaWQ9Ik1lbnVJbml0aWFsaXphdGlvbkRhdGFiYXNlLXRvLUN1YmFuU2FuZHdpY2giIHN0eWxlPSJzdHJva2U6IzE4MTgxODtzdHJva2Utd2lkdGg6MS4wO3N0cm9rZS1kYXNoYXJyYXk6Ny4wLDcuMDsiLz48cG9seWdvbiBmaWxsPSIjMTgxODE4IiBwb2ludHM9IjU3Ni4yMiwxNzYuOTYsNTg2LjAwNSwxNzguMDc5Nyw1ODAuOTkwMywxNzUuNDYxOSw1ODMuNjA4MSwxNzAuNDQ3Miw1NzYuMjIsMTc2Ljk2IiBzdHlsZT0ic3Ryb2tlOiMxODE4MTg7c3Ryb2tlLXdpZHRoOjEuMDsiLz48dGV4dCBmaWxsPSIjMDAwMDAwIiBmb250LWZhbWlseT0ic2Fucy1zZXJpZiIgZm9udC1zaXplPSIxMyIgbGVuZ3RoQWRqdXN0PSJzcGFjaW5nIiB0ZXh0TGVuZ3RoPSIyOCIgeD0iNzA5IiB5PSIxNDUuMjg5MSI+dXNlczwvdGV4dD48L2c+PCEtLWxpbmsgTWVudUluaXRpYWxpemF0aW9uRGF0YWJhc2UgdG8gTWVudUl0ZW0tLT48ZyBpZD0ibGlua19NZW51SW5pdGlhbGl6YXRpb25EYXRhYmFzZV9NZW51SXRlbSI+PHBhdGggY29kZUxpbmU9IjE2IiBkPSJNMTAwOS40LDEwMi4wMiBDMTA4MC43NSwxMjQuMzggMTE3MS40NjQ1LDE1Mi44MDYgMTI0Mi44MjQ1LDE3NS4xNjYgIiBmaWxsPSJub25lIiBpZD0iTWVudUluaXRpYWxpemF0aW9uRGF0YWJhc2UtdG8tTWVudUl0ZW0iIHN0eWxlPSJzdHJva2U6IzE4MTgxODtzdHJva2Utd2lkdGg6MS4wO3N0cm9rZS1kYXNoYXJyYXk6Ny4wLDcuMDsiLz48cG9seWdvbiBmaWxsPSIjMTgxODE4IiBwb2ludHM9IjEyNDguNTUsMTc2Ljk2LDEyNDEuMTU3OCwxNzAuNDUxOSwxMjQzLjc3ODcsMTc1LjQ2NSwxMjM4Ljc2NTcsMTc4LjA4NiwxMjQ4LjU1LDE3Ni45NiIgc3R5bGU9InN0cm9rZTojMTgxODE4O3N0cm9rZS13aWR0aDoxLjA7Ii8+PHRleHQgZmlsbD0iIzAwMDAwMCIgZm9udC1mYW1pbHk9InNhbnMtc2VyaWYiIGZvbnQtc2l6ZT0iMTMiIGxlbmd0aEFkanVzdD0ic3BhY2luZyIgdGV4dExlbmd0aD0iMjgiIHg9IjExNDMiIHk9IjE0NS4yODkxIj51c2VzPC90ZXh0PjwvZz48IS0tU1JDPVtqUDZuWmk4bTM4UHRkaThaWTBlbmQxV29pQzIybjRzejV0MEoyb25JZnFlU0pkVThUd1RLNTFNR3EydGR5VlZkdHgtSjFrcTFUbUdyOV9yT3BFVG02ZXNXQlVpbjlWV2FvSGpYUFZKeVl5ZjFyZ1hPT1FBTVdyakRrSVZlb2xWNFU2Qlc2RFhydDdkZWtpZUxJZWRZbGpka1hxT0ZaUjVXSkdQQVpJb3gwWG1iWmtIQTNWUW1mSUR2MG9uUVdDcW5ha1lCcGo5OTFnZUdGQTRLcTRJc2hRNEJrVjlLRzRzZU5wX0RWU05hRE1YdGxiOHpwRFhoX25sbDhTb1JOdlpEYmFfRlFJMGRJZC1Qa3J6dDZwYlYwMDAwXS0tPjwvZz48L3N2Zz4=;" vertex="1" parent="1">
            <mxGeometry x="-840" width="1745" height="263" as="geometry" />
          </mxCell>
        </UserObject>
        <UserObject label="" plantUmlData="{&#xa;  &quot;data&quot;: &quot;@startuml\npackage mist4600 {\n\n    class MenuItem {\n        - name: String\n        - desiredStockLevel: int\n        - currentStockLevel: int\n        - inStock: boolean\n        - price: double\n        - foodDatabase: HashMap&lt;String, MenuItem&gt;\n        \n        + MenuItem(name: String, desiredStockLevel: int, currentStockLevel: int, inStock: boolean, price: double)\n        + getName(): String\n        + getDesiredStockLevel(): int\n        + getCurrentStockLevel(): int\n        + isInStock(): boolean\n        + getPrice(): double\n        + setName(name: String): void\n        + setDesiredStockLevel(desiredStockLevel: int): void\n        + setCurrentStockLevel(currentStockLevel: int): void\n        + setInStock(inStock: boolean): void\n        + setPrice(price: double): void\n        + fetchFoodByName(name: String): MenuItem\n        + printCurrentAndDesired(): void\n        + toString(): String\n    }\n}\n@enduml&quot;,&#xa;  &quot;format&quot;: &quot;svg&quot;&#xa;}" id="fWNX3ebg49ibDspfP-_P-4">
          <mxCell style="shape=image;noLabel=1;verticalAlign=top;aspect=fixed;imageAspect=0;image=data:image/svg+xml,PD94bWwgdmVyc2lvbj0iMS4wIiBlbmNvZGluZz0idXMtYXNjaWkiIHN0YW5kYWxvbmU9Im5vIj8+PHN2ZyB4bWxucz0iaHR0cDovL3d3dy53My5vcmcvMjAwMC9zdmciIHhtbG5zOnhsaW5rPSJodHRwOi8vd3d3LnczLm9yZy8xOTk5L3hsaW5rIiBjb250ZW50U3R5bGVUeXBlPSJ0ZXh0L2NzcyIgaGVpZ2h0PSI0MTBweCIgcHJlc2VydmVBc3BlY3RSYXRpbz0ibm9uZSIgc3R5bGU9IndpZHRoOjc5N3B4O2hlaWdodDo0MTBweDtiYWNrZ3JvdW5kOiNGRkZGRkY7IiB2ZXJzaW9uPSIxLjEiIHZpZXdCb3g9IjAgMCA3OTcgNDEwIiB3aWR0aD0iNzk3cHgiIHpvb21BbmRQYW49Im1hZ25pZnkiPjxkZWZzLz48Zz48IS0tY2x1c3RlciBtaXN0NDYwMC0tPjxnIGlkPSJjbHVzdGVyX21pc3Q0NjAwIj48cGF0aCBkPSJNOC41LDYgTDY2LjUsNiBBMy43NSwzLjc1IDAgMCAxIDY5LDguNSBMNzYsMjYuOTg0NCBMNzg3LjUsMjYuOTg0NCBBMi41LDIuNSAwIDAgMSA3OTAsMjkuNDg0NCBMNzkwLDQwMC41IEEyLjUsMi41IDAgMCAxIDc4Ny41LDQwMyBMOC41LDQwMyBBMi41LDIuNSAwIDAgMSA2LDQwMC41IEw2LDguNSBBMi41LDIuNSAwIDAgMSA4LjUsNiAiIGZpbGw9Im5vbmUiIHN0eWxlPSJzdHJva2U6IzAwMDAwMDtzdHJva2Utd2lkdGg6MS41OyIvPjxsaW5lIHN0eWxlPSJzdHJva2U6IzAwMDAwMDtzdHJva2Utd2lkdGg6MS41OyIgeDE9IjYiIHgyPSI3NiIgeTE9IjI2Ljk4NDQiIHkyPSIyNi45ODQ0Ii8+PHRleHQgZmlsbD0iIzAwMDAwMCIgZm9udC1mYW1pbHk9InNhbnMtc2VyaWYiIGZvbnQtc2l6ZT0iMTQiIGZvbnQtd2VpZ2h0PSJib2xkIiBsZW5ndGhBZGp1c3Q9InNwYWNpbmciIHRleHRMZW5ndGg9IjU3IiB4PSIxMCIgeT0iMjEuMjM0NCI+bWlzdDQ2MDA8L3RleHQ+PC9nPjwhLS1jbGFzcyBNZW51SXRlbS0tPjxnIGlkPSJlbGVtX01lbnVJdGVtIj48cmVjdCBjb2RlTGluZT0iMyIgZmlsbD0iI0YxRjFGMSIgaGVpZ2h0PSIzNDcuNjg3NSIgaWQ9Ik1lbnVJdGVtIiByeD0iMi41IiByeT0iMi41IiBzdHlsZT0ic3Ryb2tlOiMxODE4MTg7c3Ryb2tlLXdpZHRoOjAuNTsiIHdpZHRoPSI3NTEiIHg9IjIyLjUiIHk9IjM5Ii8+PGVsbGlwc2UgY3g9IjM2NS4yNSIgY3k9IjU1IiBmaWxsPSIjQUREMUIyIiByeD0iMTEiIHJ5PSIxMSIgc3R5bGU9InN0cm9rZTojMTgxODE4O3N0cm9rZS13aWR0aDoxLjA7Ii8+PHBhdGggZD0iTTM2Mi44NzUsNTkuMjUgTDM2Mi44NzUsNjEgTDM2Ny44MTI1LDYxIEwzNjcuODEyNSw1OS4yNSBMMzYyLjg3NSw1OS4yNSBaIE0zNjMuNTYyNSw1OS45Mzc1IFEzNjMuNTYyNSw1OS45Mzc1IDM2My41NjI1LDUwLjc1IEwzNjEuODEyNSw1MC43NSBRMzYxLjgxMjUsNTAuNzUgMzYxLjgxMjUsNTkuOTM3NSBMMzYzLjU2MjUsNTkuOTM3NSBaIE0zNjcuMTI1LDU5LjkzNzUgTDM2OC44NzUsNTkuOTM3NSBRMzY4Ljg3NSw1OS45Mzc1IDM2OC44NzUsNTcuMTI1IEwzNjcuMTI1LDU3LjEyNSBRMzY3LjEyNSw1Ny4xMjUgMzY3LjEyNSw1OS45Mzc1IFogTTM2Ny4xMjUsNTAuNzUgUTM2Ny4xMjUsNTAuNzUgMzY3LjEyNSw1My41NjI1IEwzNjguODc1LDUzLjU2MjUgUTM2OC44NzUsNTMuNTYyNSAzNjguODc1LDUwLjc1IEwzNjcuMTI1LDUwLjc1IFogTTM2Mi44NzUsNTEuNDM3NSBMMzY3LjgxMjUsNTEuNDM3NSBMMzY3LjgxMjUsNDkuNjg3NSBMMzYyLjg3NSw0OS42ODc1IEwzNjIuODc1LDUxLjQzNzUgWiAiIGZpbGw9IiMwMDAwMDAiLz48dGV4dCBmaWxsPSIjMDAwMDAwIiBmb250LWZhbWlseT0ic2Fucy1zZXJpZiIgZm9udC1zaXplPSIxNCIgbGVuZ3RoQWRqdXN0PSJzcGFjaW5nIiB0ZXh0TGVuZ3RoPSI1NyIgeD0iMzg1Ljc1IiB5PSI2MC43NDIyIj5NZW51SXRlbTwvdGV4dD48bGluZSBzdHlsZT0ic3Ryb2tlOiMxODE4MTg7c3Ryb2tlLXdpZHRoOjAuNTsiIHgxPSIyMy41IiB4Mj0iNzcyLjUiIHkxPSI3MSIgeTI9IjcxIi8+PHJlY3QgZmlsbD0ibm9uZSIgaGVpZ2h0PSI2IiBzdHlsZT0ic3Ryb2tlOiNDODI5MzA7c3Ryb2tlLXdpZHRoOjEuMDsiIHdpZHRoPSI2IiB4PSIzMC41IiB5PSI4MC45OTIyIi8+PHRleHQgZmlsbD0iIzAwMDAwMCIgZm9udC1mYW1pbHk9InNhbnMtc2VyaWYiIGZvbnQtc2l6ZT0iMTQiIGxlbmd0aEFkanVzdD0ic3BhY2luZyIgdGV4dExlbmd0aD0iODUiIHg9IjQyLjUiIHk9Ijg4LjIzNDQiPm5hbWU6IFN0cmluZzwvdGV4dD48cmVjdCBmaWxsPSJub25lIiBoZWlnaHQ9IjYiIHN0eWxlPSJzdHJva2U6I0M4MjkzMDtzdHJva2Utd2lkdGg6MS4wOyIgd2lkdGg9IjYiIHg9IjMwLjUiIHk9Ijk1Ljk3NjYiLz48dGV4dCBmaWxsPSIjMDAwMDAwIiBmb250LWZhbWlseT0ic2Fucy1zZXJpZiIgZm9udC1zaXplPSIxNCIgbGVuZ3RoQWRqdXN0PSJzcGFjaW5nIiB0ZXh0TGVuZ3RoPSIxNTQiIHg9IjQyLjUiIHk9IjEwMy4yMTg4Ij5kZXNpcmVkU3RvY2tMZXZlbDogaW50PC90ZXh0PjxyZWN0IGZpbGw9Im5vbmUiIGhlaWdodD0iNiIgc3R5bGU9InN0cm9rZTojQzgyOTMwO3N0cm9rZS13aWR0aDoxLjA7IiB3aWR0aD0iNiIgeD0iMzAuNSIgeT0iMTEwLjk2MDkiLz48dGV4dCBmaWxsPSIjMDAwMDAwIiBmb250LWZhbWlseT0ic2Fucy1zZXJpZiIgZm9udC1zaXplPSIxNCIgbGVuZ3RoQWRqdXN0PSJzcGFjaW5nIiB0ZXh0TGVuZ3RoPSIxNTQiIHg9IjQyLjUiIHk9IjExOC4yMDMxIj5jdXJyZW50U3RvY2tMZXZlbDogaW50PC90ZXh0PjxyZWN0IGZpbGw9Im5vbmUiIGhlaWdodD0iNiIgc3R5bGU9InN0cm9rZTojQzgyOTMwO3N0cm9rZS13aWR0aDoxLjA7IiB3aWR0aD0iNiIgeD0iMzAuNSIgeT0iMTI1Ljk0NTMiLz48dGV4dCBmaWxsPSIjMDAwMDAwIiBmb250LWZhbWlseT0ic2Fucy1zZXJpZiIgZm9udC1zaXplPSIxNCIgbGVuZ3RoQWRqdXN0PSJzcGFjaW5nIiB0ZXh0TGVuZ3RoPSIxMTIiIHg9IjQyLjUiIHk9IjEzMy4xODc1Ij5pblN0b2NrOiBib29sZWFuPC90ZXh0PjxyZWN0IGZpbGw9Im5vbmUiIGhlaWdodD0iNiIgc3R5bGU9InN0cm9rZTojQzgyOTMwO3N0cm9rZS13aWR0aDoxLjA7IiB3aWR0aD0iNiIgeD0iMzAuNSIgeT0iMTQwLjkyOTciLz48dGV4dCBmaWxsPSIjMDAwMDAwIiBmb250LWZhbWlseT0ic2Fucy1zZXJpZiIgZm9udC1zaXplPSIxNCIgbGVuZ3RoQWRqdXN0PSJzcGFjaW5nIiB0ZXh0TGVuZ3RoPSI5MSIgeD0iNDIuNSIgeT0iMTQ4LjE3MTkiPnByaWNlOiBkb3VibGU8L3RleHQ+PHJlY3QgZmlsbD0ibm9uZSIgaGVpZ2h0PSI2IiBzdHlsZT0ic3Ryb2tlOiNDODI5MzA7c3Ryb2tlLXdpZHRoOjEuMDsiIHdpZHRoPSI2IiB4PSIzMC41IiB5PSIxNTUuOTE0MSIvPjx0ZXh0IGZpbGw9IiMwMDAwMDAiIGZvbnQtZmFtaWx5PSJzYW5zLXNlcmlmIiBmb250LXNpemU9IjE0IiBsZW5ndGhBZGp1c3Q9InNwYWNpbmciIHRleHRMZW5ndGg9IjI3NCIgeD0iNDIuNSIgeT0iMTYzLjE1NjMiPmZvb2REYXRhYmFzZTogSGFzaE1hcCZsdDtTdHJpbmcsIE1lbnVJdGVtJmd0OzwvdGV4dD48bGluZSBzdHlsZT0ic3Ryb2tlOiMxODE4MTg7c3Ryb2tlLXdpZHRoOjAuNTsiIHgxPSIyMy41IiB4Mj0iNzcyLjUiIHkxPSIxNjguOTA2MyIgeTI9IjE2OC45MDYzIi8+PGVsbGlwc2UgY3g9IjMzLjUiIGN5PSIxODEuODk4NCIgZmlsbD0iIzg0QkU4NCIgcng9IjMiIHJ5PSIzIiBzdHlsZT0ic3Ryb2tlOiMwMzgwNDg7c3Ryb2tlLXdpZHRoOjEuMDsiLz48dGV4dCBmaWxsPSIjMDAwMDAwIiBmb250LWZhbWlseT0ic2Fucy1zZXJpZiIgZm9udC1zaXplPSIxNCIgbGVuZ3RoQWRqdXN0PSJzcGFjaW5nIiB0ZXh0TGVuZ3RoPSI3MjUiIHg9IjQyLjUiIHk9IjE4Ni4xNDA2Ij5NZW51SXRlbShuYW1lOiBTdHJpbmcsIGRlc2lyZWRTdG9ja0xldmVsOiBpbnQsIGN1cnJlbnRTdG9ja0xldmVsOiBpbnQsIGluU3RvY2s6IGJvb2xlYW4sIHByaWNlOiBkb3VibGUpPC90ZXh0PjxlbGxpcHNlIGN4PSIzMy41IiBjeT0iMTk2Ljg4MjgiIGZpbGw9IiM4NEJFODQiIHJ4PSIzIiByeT0iMyIgc3R5bGU9InN0cm9rZTojMDM4MDQ4O3N0cm9rZS13aWR0aDoxLjA7Ii8+PHRleHQgZmlsbD0iIzAwMDAwMCIgZm9udC1mYW1pbHk9InNhbnMtc2VyaWYiIGZvbnQtc2l6ZT0iMTQiIGxlbmd0aEFkanVzdD0ic3BhY2luZyIgdGV4dExlbmd0aD0iMTIyIiB4PSI0Mi41IiB5PSIyMDEuMTI1Ij5nZXROYW1lKCk6IFN0cmluZzwvdGV4dD48ZWxsaXBzZSBjeD0iMzMuNSIgY3k9IjIxMS44NjcyIiBmaWxsPSIjODRCRTg0IiByeD0iMyIgcnk9IjMiIHN0eWxlPSJzdHJva2U6IzAzODA0ODtzdHJva2Utd2lkdGg6MS4wOyIvPjx0ZXh0IGZpbGw9IiMwMDAwMDAiIGZvbnQtZmFtaWx5PSJzYW5zLXNlcmlmIiBmb250LXNpemU9IjE0IiBsZW5ndGhBZGp1c3Q9InNwYWNpbmciIHRleHRMZW5ndGg9IjE5MSIgeD0iNDIuNSIgeT0iMjE2LjEwOTQiPmdldERlc2lyZWRTdG9ja0xldmVsKCk6IGludDwvdGV4dD48ZWxsaXBzZSBjeD0iMzMuNSIgY3k9IjIyNi44NTE2IiBmaWxsPSIjODRCRTg0IiByeD0iMyIgcnk9IjMiIHN0eWxlPSJzdHJva2U6IzAzODA0ODtzdHJva2Utd2lkdGg6MS4wOyIvPjx0ZXh0IGZpbGw9IiMwMDAwMDAiIGZvbnQtZmFtaWx5PSJzYW5zLXNlcmlmIiBmb250LXNpemU9IjE0IiBsZW5ndGhBZGp1c3Q9InNwYWNpbmciIHRleHRMZW5ndGg9IjE5MSIgeD0iNDIuNSIgeT0iMjMxLjA5MzgiPmdldEN1cnJlbnRTdG9ja0xldmVsKCk6IGludDwvdGV4dD48ZWxsaXBzZSBjeD0iMzMuNSIgY3k9IjI0MS44MzU5IiBmaWxsPSIjODRCRTg0IiByeD0iMyIgcnk9IjMiIHN0eWxlPSJzdHJva2U6IzAzODA0ODtzdHJva2Utd2lkdGg6MS4wOyIvPjx0ZXh0IGZpbGw9IiMwMDAwMDAiIGZvbnQtZmFtaWx5PSJzYW5zLXNlcmlmIiBmb250LXNpemU9IjE0IiBsZW5ndGhBZGp1c3Q9InNwYWNpbmciIHRleHRMZW5ndGg9IjE0MiIgeD0iNDIuNSIgeT0iMjQ2LjA3ODEiPmlzSW5TdG9jaygpOiBib29sZWFuPC90ZXh0PjxlbGxpcHNlIGN4PSIzMy41IiBjeT0iMjU2LjgyMDMiIGZpbGw9IiM4NEJFODQiIHJ4PSIzIiByeT0iMyIgc3R5bGU9InN0cm9rZTojMDM4MDQ4O3N0cm9rZS13aWR0aDoxLjA7Ii8+PHRleHQgZmlsbD0iIzAwMDAwMCIgZm9udC1mYW1pbHk9InNhbnMtc2VyaWYiIGZvbnQtc2l6ZT0iMTQiIGxlbmd0aEFkanVzdD0ic3BhY2luZyIgdGV4dExlbmd0aD0iMTI4IiB4PSI0Mi41IiB5PSIyNjEuMDYyNSI+Z2V0UHJpY2UoKTogZG91YmxlPC90ZXh0PjxlbGxpcHNlIGN4PSIzMy41IiBjeT0iMjcxLjgwNDciIGZpbGw9IiM4NEJFODQiIHJ4PSIzIiByeT0iMyIgc3R5bGU9InN0cm9rZTojMDM4MDQ4O3N0cm9rZS13aWR0aDoxLjA7Ii8+PHRleHQgZmlsbD0iIzAwMDAwMCIgZm9udC1mYW1pbHk9InNhbnMtc2VyaWYiIGZvbnQtc2l6ZT0iMTQiIGxlbmd0aEFkanVzdD0ic3BhY2luZyIgdGV4dExlbmd0aD0iMTkzIiB4PSI0Mi41IiB5PSIyNzYuMDQ2OSI+c2V0TmFtZShuYW1lOiBTdHJpbmcpOiB2b2lkPC90ZXh0PjxlbGxpcHNlIGN4PSIzMy41IiBjeT0iMjg2Ljc4OTEiIGZpbGw9IiM4NEJFODQiIHJ4PSIzIiByeT0iMyIgc3R5bGU9InN0cm9rZTojMDM4MDQ4O3N0cm9rZS13aWR0aDoxLjA7Ii8+PHRleHQgZmlsbD0iIzAwMDAwMCIgZm9udC1mYW1pbHk9InNhbnMtc2VyaWYiIGZvbnQtc2l6ZT0iMTQiIGxlbmd0aEFkanVzdD0ic3BhY2luZyIgdGV4dExlbmd0aD0iMzUyIiB4PSI0Mi41IiB5PSIyOTEuMDMxMyI+c2V0RGVzaXJlZFN0b2NrTGV2ZWwoZGVzaXJlZFN0b2NrTGV2ZWw6IGludCk6IHZvaWQ8L3RleHQ+PGVsbGlwc2UgY3g9IjMzLjUiIGN5PSIzMDEuNzczNCIgZmlsbD0iIzg0QkU4NCIgcng9IjMiIHJ5PSIzIiBzdHlsZT0ic3Ryb2tlOiMwMzgwNDg7c3Ryb2tlLXdpZHRoOjEuMDsiLz48dGV4dCBmaWxsPSIjMDAwMDAwIiBmb250LWZhbWlseT0ic2Fucy1zZXJpZiIgZm9udC1zaXplPSIxNCIgbGVuZ3RoQWRqdXN0PSJzcGFjaW5nIiB0ZXh0TGVuZ3RoPSIzNTIiIHg9IjQyLjUiIHk9IjMwNi4wMTU2Ij5zZXRDdXJyZW50U3RvY2tMZXZlbChjdXJyZW50U3RvY2tMZXZlbDogaW50KTogdm9pZDwvdGV4dD48ZWxsaXBzZSBjeD0iMzMuNSIgY3k9IjMxNi43NTc4IiBmaWxsPSIjODRCRTg0IiByeD0iMyIgcnk9IjMiIHN0eWxlPSJzdHJva2U6IzAzODA0ODtzdHJva2Utd2lkdGg6MS4wOyIvPjx0ZXh0IGZpbGw9IiMwMDAwMDAiIGZvbnQtZmFtaWx5PSJzYW5zLXNlcmlmIiBmb250LXNpemU9IjE0IiBsZW5ndGhBZGp1c3Q9InNwYWNpbmciIHRleHRMZW5ndGg9IjI0MCIgeD0iNDIuNSIgeT0iMzIxIj5zZXRJblN0b2NrKGluU3RvY2s6IGJvb2xlYW4pOiB2b2lkPC90ZXh0PjxlbGxpcHNlIGN4PSIzMy41IiBjeT0iMzMxLjc0MjIiIGZpbGw9IiM4NEJFODQiIHJ4PSIzIiByeT0iMyIgc3R5bGU9InN0cm9rZTojMDM4MDQ4O3N0cm9rZS13aWR0aDoxLjA7Ii8+PHRleHQgZmlsbD0iIzAwMDAwMCIgZm9udC1mYW1pbHk9InNhbnMtc2VyaWYiIGZvbnQtc2l6ZT0iMTQiIGxlbmd0aEFkanVzdD0ic3BhY2luZyIgdGV4dExlbmd0aD0iMjA1IiB4PSI0Mi41IiB5PSIzMzUuOTg0NCI+c2V0UHJpY2UocHJpY2U6IGRvdWJsZSk6IHZvaWQ8L3RleHQ+PGVsbGlwc2UgY3g9IjMzLjUiIGN5PSIzNDYuNzI2NiIgZmlsbD0iIzg0QkU4NCIgcng9IjMiIHJ5PSIzIiBzdHlsZT0ic3Ryb2tlOiMwMzgwNDg7c3Ryb2tlLXdpZHRoOjEuMDsiLz48dGV4dCBmaWxsPSIjMDAwMDAwIiBmb250LWZhbWlseT0ic2Fucy1zZXJpZiIgZm9udC1zaXplPSIxNCIgbGVuZ3RoQWRqdXN0PSJzcGFjaW5nIiB0ZXh0TGVuZ3RoPSIyNzgiIHg9IjQyLjUiIHk9IjM1MC45Njg4Ij5mZXRjaEZvb2RCeU5hbWUobmFtZTogU3RyaW5nKTogTWVudUl0ZW08L3RleHQ+PGVsbGlwc2UgY3g9IjMzLjUiIGN5PSIzNjEuNzEwOSIgZmlsbD0iIzg0QkU4NCIgcng9IjMiIHJ5PSIzIiBzdHlsZT0ic3Ryb2tlOiMwMzgwNDg7c3Ryb2tlLXdpZHRoOjEuMDsiLz48dGV4dCBmaWxsPSIjMDAwMDAwIiBmb250LWZhbWlseT0ic2Fucy1zZXJpZiIgZm9udC1zaXplPSIxNCIgbGVuZ3RoQWRqdXN0PSJzcGFjaW5nIiB0ZXh0TGVuZ3RoPSIyMTIiIHg9IjQyLjUiIHk9IjM2NS45NTMxIj5wcmludEN1cnJlbnRBbmREZXNpcmVkKCk6IHZvaWQ8L3RleHQ+PGVsbGlwc2UgY3g9IjMzLjUiIGN5PSIzNzYuNjk1MyIgZmlsbD0iIzg0QkU4NCIgcng9IjMiIHJ5PSIzIiBzdHlsZT0ic3Ryb2tlOiMwMzgwNDg7c3Ryb2tlLXdpZHRoOjEuMDsiLz48dGV4dCBmaWxsPSIjMDAwMDAwIiBmb250LWZhbWlseT0ic2Fucy1zZXJpZiIgZm9udC1zaXplPSIxNCIgbGVuZ3RoQWRqdXN0PSJzcGFjaW5nIiB0ZXh0TGVuZ3RoPSIxMjgiIHg9IjQyLjUiIHk9IjM4MC45Mzc1Ij50b1N0cmluZygpOiBTdHJpbmc8L3RleHQ+PC9nPjwhLS1TUkM9W1RMQkJRaUNtNEJweEF0SHFZMGl2YjF2Q0FSR0RmTzZjNUY4NWloSG5INnA5SUVqMEFWZHRvYXphSVRQOXhDcGtwZXBLSzdRYjlQMVE2N255c2t0OE52OEdVclg1Wkk1N2FFcTFlUlBMQ2Z1NzhjYURFSmNYNWg5cW9Yb0NxQzFGZ0RacjJzdkd2S0g4VDBZaXJIZWFoWEU0eEI2UzU0ZkxHQUszRExlbWt2SWhqZ1owZ1AtTHVka0FqQTM2bWZfS044d3FVSHdxUFJGeWJ4YlpsY25kQzdOelAyaXNpWE5yTUkwd01zaFRFMWpCbTYteEF6cTR3Vk5PdGpfUzRUczRValF4aG9EYTJOQ09IN01HZHNLX3ZBVUpzQTVVZTVqWUhlcmtBOVB0S3U4bE1RN1FVN0JIdmoxNEZEdmV5c0pFSnB2QTdmbWtkb0pXZEc3UHZTRC1mUlZWY0ZkZmZwV1RUZzJTTkJuQUZlUUhYZ0RIM01FeUh4eWR6dHkwXS0tPjwvZz48L3N2Zz4=;" vertex="1" parent="1">
            <mxGeometry x="-840" y="280" width="797" height="410" as="geometry" />
          </mxCell>
        </UserObject>
        <UserObject label="" plantUmlData="{&#xa;  &quot;data&quot;: &quot;@startuml\npackage mist4600 {\n\n    class Main {\n        + main(args: String[]): void\n    }\n\n    class MenuInitializationDatabase {\n        + initializeMenuDatabase(): void\n    }\n\n    class DecisionCode {\n        + runMainScenOne(scnr: Scanner): void\n        + runScenFour(scnr: Scanner): void\n        + runScenOne(scnr: Scanner): void\n        + runScenTwo(scnr: Scanner): void\n        + runScenThree(scnr: Scanner): void\n        + runScenFive(scnr: Scanner): void\n        + runScenSix(scnr: Scanner): void\n        + runScenSev(scnr: Scanner): void\n    }\n\n    Main ..&gt; MenuInitializationDatabase : uses\n    Main ..&gt; DecisionCode : calls\n}\n@enduml\n&quot;,&#xa;  &quot;format&quot;: &quot;svg&quot;&#xa;}" id="fWNX3ebg49ibDspfP-_P-7">
          <mxCell style="shape=image;noLabel=1;verticalAlign=top;aspect=fixed;imageAspect=0;image=data:image/svg+xml,PD94bWwgdmVyc2lvbj0iMS4wIiBlbmNvZGluZz0idXMtYXNjaWkiIHN0YW5kYWxvbmU9Im5vIj8+PHN2ZyB4bWxucz0iaHR0cDovL3d3dy53My5vcmcvMjAwMC9zdmciIHhtbG5zOnhsaW5rPSJodHRwOi8vd3d3LnczLm9yZy8xOTk5L3hsaW5rIiBjb250ZW50U3R5bGVUeXBlPSJ0ZXh0L2NzcyIgaGVpZ2h0PSIzNjhweCIgcHJlc2VydmVBc3BlY3RSYXRpbz0ibm9uZSIgc3R5bGU9IndpZHRoOjU5MnB4O2hlaWdodDozNjhweDtiYWNrZ3JvdW5kOiNGRkZGRkY7IiB2ZXJzaW9uPSIxLjEiIHZpZXdCb3g9IjAgMCA1OTIgMzY4IiB3aWR0aD0iNTkycHgiIHpvb21BbmRQYW49Im1hZ25pZnkiPjxkZWZzLz48Zz48IS0tY2x1c3RlciBtaXN0NDYwMC0tPjxnIGlkPSJjbHVzdGVyX21pc3Q0NjAwIj48cGF0aCBkPSJNOC41LDYgTDY2LjUsNiBBMy43NSwzLjc1IDAgMCAxIDY5LDguNSBMNzYsMjYuOTg0NCBMNTgyLjUsMjYuOTg0NCBBMi41LDIuNSAwIDAgMSA1ODUsMjkuNDg0NCBMNTg1LDM1OC41IEEyLjUsMi41IDAgMCAxIDU4Mi41LDM2MSBMOC41LDM2MSBBMi41LDIuNSAwIDAgMSA2LDM1OC41IEw2LDguNSBBMi41LDIuNSAwIDAgMSA4LjUsNiAiIGZpbGw9Im5vbmUiIHN0eWxlPSJzdHJva2U6IzAwMDAwMDtzdHJva2Utd2lkdGg6MS41OyIvPjxsaW5lIHN0eWxlPSJzdHJva2U6IzAwMDAwMDtzdHJva2Utd2lkdGg6MS41OyIgeDE9IjYiIHgyPSI3NiIgeTE9IjI2Ljk4NDQiIHkyPSIyNi45ODQ0Ii8+PHRleHQgZmlsbD0iIzAwMDAwMCIgZm9udC1mYW1pbHk9InNhbnMtc2VyaWYiIGZvbnQtc2l6ZT0iMTQiIGZvbnQtd2VpZ2h0PSJib2xkIiBsZW5ndGhBZGp1c3Q9InNwYWNpbmciIHRleHRMZW5ndGg9IjU3IiB4PSIxMCIgeT0iMjEuMjM0NCI+bWlzdDQ2MDA8L3RleHQ+PC9nPjwhLS1jbGFzcyBNYWluLS0+PGcgaWQ9ImVsZW1fTWFpbiI+PHJlY3QgY29kZUxpbmU9IjMiIGZpbGw9IiNGMUYxRjEiIGhlaWdodD0iNjIuOTg0NCIgaWQ9Ik1haW4iIHJ4PSIyLjUiIHJ5PSIyLjUiIHN0eWxlPSJzdHJva2U6IzE4MTgxODtzdHJva2Utd2lkdGg6MC41OyIgd2lkdGg9IjIxMSIgeD0iMTgwLjUiIHk9IjM5Ii8+PGVsbGlwc2UgY3g9IjI2Ny43NSIgY3k9IjU1IiBmaWxsPSIjQUREMUIyIiByeD0iMTEiIHJ5PSIxMSIgc3R5bGU9InN0cm9rZTojMTgxODE4O3N0cm9rZS13aWR0aDoxLjA7Ii8+PHBhdGggZD0iTTI2NS4zNzUsNTkuMjUgTDI2NS4zNzUsNjEgTDI3MC4zMTI1LDYxIEwyNzAuMzEyNSw1OS4yNSBMMjY1LjM3NSw1OS4yNSBaIE0yNjYuMDYyNSw1OS45Mzc1IFEyNjYuMDYyNSw1OS45Mzc1IDI2Ni4wNjI1LDUwLjc1IEwyNjQuMzEyNSw1MC43NSBRMjY0LjMxMjUsNTAuNzUgMjY0LjMxMjUsNTkuOTM3NSBMMjY2LjA2MjUsNTkuOTM3NSBaIE0yNjkuNjI1LDU5LjkzNzUgTDI3MS4zNzUsNTkuOTM3NSBRMjcxLjM3NSw1OS45Mzc1IDI3MS4zNzUsNTcuMTI1IEwyNjkuNjI1LDU3LjEyNSBRMjY5LjYyNSw1Ny4xMjUgMjY5LjYyNSw1OS45Mzc1IFogTTI2OS42MjUsNTAuNzUgUTI2OS42MjUsNTAuNzUgMjY5LjYyNSw1My41NjI1IEwyNzEuMzc1LDUzLjU2MjUgUTI3MS4zNzUsNTMuNTYyNSAyNzEuMzc1LDUwLjc1IEwyNjkuNjI1LDUwLjc1IFogTTI2NS4zNzUsNTEuNDM3NSBMMjcwLjMxMjUsNTEuNDM3NSBMMjcwLjMxMjUsNDkuNjg3NSBMMjY1LjM3NSw0OS42ODc1IEwyNjUuMzc1LDUxLjQzNzUgWiAiIGZpbGw9IiMwMDAwMDAiLz48dGV4dCBmaWxsPSIjMDAwMDAwIiBmb250LWZhbWlseT0ic2Fucy1zZXJpZiIgZm9udC1zaXplPSIxNCIgbGVuZ3RoQWRqdXN0PSJzcGFjaW5nIiB0ZXh0TGVuZ3RoPSIyOCIgeD0iMjg4LjI1IiB5PSI2MC43NDIyIj5NYWluPC90ZXh0PjxsaW5lIHN0eWxlPSJzdHJva2U6IzE4MTgxODtzdHJva2Utd2lkdGg6MC41OyIgeDE9IjE4MS41IiB4Mj0iMzkwLjUiIHkxPSI3MSIgeTI9IjcxIi8+PGxpbmUgc3R5bGU9InN0cm9rZTojMTgxODE4O3N0cm9rZS13aWR0aDowLjU7IiB4MT0iMTgxLjUiIHgyPSIzOTAuNSIgeTE9Ijc5IiB5Mj0iNzkiLz48ZWxsaXBzZSBjeD0iMTkxLjUiIGN5PSI5MS45OTIyIiBmaWxsPSIjODRCRTg0IiByeD0iMyIgcnk9IjMiIHN0eWxlPSJzdHJva2U6IzAzODA0ODtzdHJva2Utd2lkdGg6MS4wOyIvPjx0ZXh0IGZpbGw9IiMwMDAwMDAiIGZvbnQtZmFtaWx5PSJzYW5zLXNlcmlmIiBmb250LXNpemU9IjE0IiBsZW5ndGhBZGp1c3Q9InNwYWNpbmciIHRleHRMZW5ndGg9IjE4NSIgeD0iMjAwLjUiIHk9Ijk2LjIzNDQiPm1haW4oYXJnczogU3RyaW5nW10pOiB2b2lkPC90ZXh0PjwvZz48IS0tY2xhc3MgTWVudUluaXRpYWxpemF0aW9uRGF0YWJhc2UtLT48ZyBpZD0iZWxlbV9NZW51SW5pdGlhbGl6YXRpb25EYXRhYmFzZSI+PHJlY3QgY29kZUxpbmU9IjciIGZpbGw9IiNGMUYxRjEiIGhlaWdodD0iNjIuOTg0NCIgaWQ9Ik1lbnVJbml0aWFsaXphdGlvbkRhdGFiYXNlIiByeD0iMi41IiByeT0iMi41IiBzdHlsZT0ic3Ryb2tlOiMxODE4MTg7c3Ryb2tlLXdpZHRoOjAuNTsiIHdpZHRoPSIyMzgiIHg9IjIyIiB5PSIyMjkuNSIvPjxlbGxpcHNlIGN4PSI0Ny44IiBjeT0iMjQ1LjUiIGZpbGw9IiNBREQxQjIiIHJ4PSIxMSIgcnk9IjExIiBzdHlsZT0ic3Ryb2tlOiMxODE4MTg7c3Ryb2tlLXdpZHRoOjEuMDsiLz48cGF0aCBkPSJNNDUuNDI1LDI0OS43NSBMNDUuNDI1LDI1MS41IEw1MC4zNjI1LDI1MS41IEw1MC4zNjI1LDI0OS43NSBMNDUuNDI1LDI0OS43NSBaIE00Ni4xMTI1LDI1MC40Mzc1IFE0Ni4xMTI1LDI1MC40Mzc1IDQ2LjExMjUsMjQxLjI1IEw0NC4zNjI1LDI0MS4yNSBRNDQuMzYyNSwyNDEuMjUgNDQuMzYyNSwyNTAuNDM3NSBMNDYuMTEyNSwyNTAuNDM3NSBaIE00OS42NzUsMjUwLjQzNzUgTDUxLjQyNSwyNTAuNDM3NSBRNTEuNDI1LDI1MC40Mzc1IDUxLjQyNSwyNDcuNjI1IEw0OS42NzUsMjQ3LjYyNSBRNDkuNjc1LDI0Ny42MjUgNDkuNjc1LDI1MC40Mzc1IFogTTQ5LjY3NSwyNDEuMjUgUTQ5LjY3NSwyNDEuMjUgNDkuNjc1LDI0NC4wNjI1IEw1MS40MjUsMjQ0LjA2MjUgUTUxLjQyNSwyNDQuMDYyNSA1MS40MjUsMjQxLjI1IEw0OS42NzUsMjQxLjI1IFogTTQ1LjQyNSwyNDEuOTM3NSBMNTAuMzYyNSwyNDEuOTM3NSBMNTAuMzYyNSwyNDAuMTg3NSBMNDUuNDI1LDI0MC4xODc1IEw0NS40MjUsMjQxLjkzNzUgWiAiIGZpbGw9IiMwMDAwMDAiLz48dGV4dCBmaWxsPSIjMDAwMDAwIiBmb250LWZhbWlseT0ic2Fucy1zZXJpZiIgZm9udC1zaXplPSIxNCIgbGVuZ3RoQWRqdXN0PSJzcGFjaW5nIiB0ZXh0TGVuZ3RoPSIxODIiIHg9IjY0LjIiIHk9IjI1MS4yNDIyIj5NZW51SW5pdGlhbGl6YXRpb25EYXRhYmFzZTwvdGV4dD48bGluZSBzdHlsZT0ic3Ryb2tlOiMxODE4MTg7c3Ryb2tlLXdpZHRoOjAuNTsiIHgxPSIyMyIgeDI9IjI1OSIgeTE9IjI2MS41IiB5Mj0iMjYxLjUiLz48bGluZSBzdHlsZT0ic3Ryb2tlOiMxODE4MTg7c3Ryb2tlLXdpZHRoOjAuNTsiIHgxPSIyMyIgeDI9IjI1OSIgeTE9IjI2OS41IiB5Mj0iMjY5LjUiLz48ZWxsaXBzZSBjeD0iMzMiIGN5PSIyODIuNDkyMiIgZmlsbD0iIzg0QkU4NCIgcng9IjMiIHJ5PSIzIiBzdHlsZT0ic3Ryb2tlOiMwMzgwNDg7c3Ryb2tlLXdpZHRoOjEuMDsiLz48dGV4dCBmaWxsPSIjMDAwMDAwIiBmb250LWZhbWlseT0ic2Fucy1zZXJpZiIgZm9udC1zaXplPSIxNCIgbGVuZ3RoQWRqdXN0PSJzcGFjaW5nIiB0ZXh0TGVuZ3RoPSIyMTIiIHg9IjQyIiB5PSIyODYuNzM0NCI+aW5pdGlhbGl6ZU1lbnVEYXRhYmFzZSgpOiB2b2lkPC90ZXh0PjwvZz48IS0tY2xhc3MgRGVjaXNpb25Db2RlLS0+PGcgaWQ9ImVsZW1fRGVjaXNpb25Db2RlIj48cmVjdCBjb2RlTGluZT0iMTEiIGZpbGw9IiNGMUYxRjEiIGhlaWdodD0iMTY3Ljg3NSIgaWQ9IkRlY2lzaW9uQ29kZSIgcng9IjIuNSIgcnk9IjIuNSIgc3R5bGU9InN0cm9rZTojMTgxODE4O3N0cm9rZS13aWR0aDowLjU7IiB3aWR0aD0iMjczIiB4PSIyOTUuNSIgeT0iMTc3Ii8+PGVsbGlwc2UgY3g9IjM4NS43NSIgY3k9IjE5MyIgZmlsbD0iI0FERDFCMiIgcng9IjExIiByeT0iMTEiIHN0eWxlPSJzdHJva2U6IzE4MTgxODtzdHJva2Utd2lkdGg6MS4wOyIvPjxwYXRoIGQ9Ik0zODMuMzc1LDE5Ny4yNSBMMzgzLjM3NSwxOTkgTDM4OC4zMTI1LDE5OSBMMzg4LjMxMjUsMTk3LjI1IEwzODMuMzc1LDE5Ny4yNSBaIE0zODQuMDYyNSwxOTcuOTM3NSBRMzg0LjA2MjUsMTk3LjkzNzUgMzg0LjA2MjUsMTg4Ljc1IEwzODIuMzEyNSwxODguNzUgUTM4Mi4zMTI1LDE4OC43NSAzODIuMzEyNSwxOTcuOTM3NSBMMzg0LjA2MjUsMTk3LjkzNzUgWiBNMzg3LjYyNSwxOTcuOTM3NSBMMzg5LjM3NSwxOTcuOTM3NSBRMzg5LjM3NSwxOTcuOTM3NSAzODkuMzc1LDE5NS4xMjUgTDM4Ny42MjUsMTk1LjEyNSBRMzg3LjYyNSwxOTUuMTI1IDM4Ny42MjUsMTk3LjkzNzUgWiBNMzg3LjYyNSwxODguNzUgUTM4Ny42MjUsMTg4Ljc1IDM4Ny42MjUsMTkxLjU2MjUgTDM4OS4zNzUsMTkxLjU2MjUgUTM4OS4zNzUsMTkxLjU2MjUgMzg5LjM3NSwxODguNzUgTDM4Ny42MjUsMTg4Ljc1IFogTTM4My4zNzUsMTg5LjQzNzUgTDM4OC4zMTI1LDE4OS40Mzc1IEwzODguMzEyNSwxODcuNjg3NSBMMzgzLjM3NSwxODcuNjg3NSBMMzgzLjM3NSwxODkuNDM3NSBaICIgZmlsbD0iIzAwMDAwMCIvPjx0ZXh0IGZpbGw9IiMwMDAwMDAiIGZvbnQtZmFtaWx5PSJzYW5zLXNlcmlmIiBmb250LXNpemU9IjE0IiBsZW5ndGhBZGp1c3Q9InNwYWNpbmciIHRleHRMZW5ndGg9Ijg0IiB4PSI0MDYuMjUiIHk9IjE5OC43NDIyIj5EZWNpc2lvbkNvZGU8L3RleHQ+PGxpbmUgc3R5bGU9InN0cm9rZTojMTgxODE4O3N0cm9rZS13aWR0aDowLjU7IiB4MT0iMjk2LjUiIHgyPSI1NjcuNSIgeTE9IjIwOSIgeTI9IjIwOSIvPjxsaW5lIHN0eWxlPSJzdHJva2U6IzE4MTgxODtzdHJva2Utd2lkdGg6MC41OyIgeDE9IjI5Ni41IiB4Mj0iNTY3LjUiIHkxPSIyMTciIHkyPSIyMTciLz48ZWxsaXBzZSBjeD0iMzA2LjUiIGN5PSIyMjkuOTkyMiIgZmlsbD0iIzg0QkU4NCIgcng9IjMiIHJ5PSIzIiBzdHlsZT0ic3Ryb2tlOiMwMzgwNDg7c3Ryb2tlLXdpZHRoOjEuMDsiLz48dGV4dCBmaWxsPSIjMDAwMDAwIiBmb250LWZhbWlseT0ic2Fucy1zZXJpZiIgZm9udC1zaXplPSIxNCIgbGVuZ3RoQWRqdXN0PSJzcGFjaW5nIiB0ZXh0TGVuZ3RoPSIyNDciIHg9IjMxNS41IiB5PSIyMzQuMjM0NCI+cnVuTWFpblNjZW5PbmUoc2NucjogU2Nhbm5lcik6IHZvaWQ8L3RleHQ+PGVsbGlwc2UgY3g9IjMwNi41IiBjeT0iMjQ0Ljk3NjYiIGZpbGw9IiM4NEJFODQiIHJ4PSIzIiByeT0iMyIgc3R5bGU9InN0cm9rZTojMDM4MDQ4O3N0cm9rZS13aWR0aDoxLjA7Ii8+PHRleHQgZmlsbD0iIzAwMDAwMCIgZm9udC1mYW1pbHk9InNhbnMtc2VyaWYiIGZvbnQtc2l6ZT0iMTQiIGxlbmd0aEFkanVzdD0ic3BhY2luZyIgdGV4dExlbmd0aD0iMjI2IiB4PSIzMTUuNSIgeT0iMjQ5LjIxODgiPnJ1blNjZW5Gb3VyKHNjbnI6IFNjYW5uZXIpOiB2b2lkPC90ZXh0PjxlbGxpcHNlIGN4PSIzMDYuNSIgY3k9IjI1OS45NjA5IiBmaWxsPSIjODRCRTg0IiByeD0iMyIgcnk9IjMiIHN0eWxlPSJzdHJva2U6IzAzODA0ODtzdHJva2Utd2lkdGg6MS4wOyIvPjx0ZXh0IGZpbGw9IiMwMDAwMDAiIGZvbnQtZmFtaWx5PSJzYW5zLXNlcmlmIiBmb250LXNpemU9IjE0IiBsZW5ndGhBZGp1c3Q9InNwYWNpbmciIHRleHRMZW5ndGg9IjIxOSIgeD0iMzE1LjUiIHk9IjI2NC4yMDMxIj5ydW5TY2VuT25lKHNjbnI6IFNjYW5uZXIpOiB2b2lkPC90ZXh0PjxlbGxpcHNlIGN4PSIzMDYuNSIgY3k9IjI3NC45NDUzIiBmaWxsPSIjODRCRTg0IiByeD0iMyIgcnk9IjMiIHN0eWxlPSJzdHJva2U6IzAzODA0ODtzdHJva2Utd2lkdGg6MS4wOyIvPjx0ZXh0IGZpbGw9IiMwMDAwMDAiIGZvbnQtZmFtaWx5PSJzYW5zLXNlcmlmIiBmb250LXNpemU9IjE0IiBsZW5ndGhBZGp1c3Q9InNwYWNpbmciIHRleHRMZW5ndGg9IjIyMCIgeD0iMzE1LjUiIHk9IjI3OS4xODc1Ij5ydW5TY2VuVHdvKHNjbnI6IFNjYW5uZXIpOiB2b2lkPC90ZXh0PjxlbGxpcHNlIGN4PSIzMDYuNSIgY3k9IjI4OS45Mjk3IiBmaWxsPSIjODRCRTg0IiByeD0iMyIgcnk9IjMiIHN0eWxlPSJzdHJva2U6IzAzODA0ODtzdHJva2Utd2lkdGg6MS4wOyIvPjx0ZXh0IGZpbGw9IiMwMDAwMDAiIGZvbnQtZmFtaWx5PSJzYW5zLXNlcmlmIiBmb250LXNpemU9IjE0IiBsZW5ndGhBZGp1c3Q9InNwYWNpbmciIHRleHRMZW5ndGg9IjIzMyIgeD0iMzE1LjUiIHk9IjI5NC4xNzE5Ij5ydW5TY2VuVGhyZWUoc2NucjogU2Nhbm5lcik6IHZvaWQ8L3RleHQ+PGVsbGlwc2UgY3g9IjMwNi41IiBjeT0iMzA0LjkxNDEiIGZpbGw9IiM4NEJFODQiIHJ4PSIzIiByeT0iMyIgc3R5bGU9InN0cm9rZTojMDM4MDQ4O3N0cm9rZS13aWR0aDoxLjA7Ii8+PHRleHQgZmlsbD0iIzAwMDAwMCIgZm9udC1mYW1pbHk9InNhbnMtc2VyaWYiIGZvbnQtc2l6ZT0iMTQiIGxlbmd0aEFkanVzdD0ic3BhY2luZyIgdGV4dExlbmd0aD0iMjI2IiB4PSIzMTUuNSIgeT0iMzA5LjE1NjMiPnJ1blNjZW5GaXZlKHNjbnI6IFNjYW5uZXIpOiB2b2lkPC90ZXh0PjxlbGxpcHNlIGN4PSIzMDYuNSIgY3k9IjMxOS44OTg0IiBmaWxsPSIjODRCRTg0IiByeD0iMyIgcnk9IjMiIHN0eWxlPSJzdHJva2U6IzAzODA0ODtzdHJva2Utd2lkdGg6MS4wOyIvPjx0ZXh0IGZpbGw9IiMwMDAwMDAiIGZvbnQtZmFtaWx5PSJzYW5zLXNlcmlmIiBmb250LXNpemU9IjE0IiBsZW5ndGhBZGp1c3Q9InNwYWNpbmciIHRleHRMZW5ndGg9IjIxOSIgeD0iMzE1LjUiIHk9IjMyNC4xNDA2Ij5ydW5TY2VuU2l4KHNjbnI6IFNjYW5uZXIpOiB2b2lkPC90ZXh0PjxlbGxpcHNlIGN4PSIzMDYuNSIgY3k9IjMzNC44ODI4IiBmaWxsPSIjODRCRTg0IiByeD0iMyIgcnk9IjMiIHN0eWxlPSJzdHJva2U6IzAzODA0ODtzdHJva2Utd2lkdGg6MS4wOyIvPjx0ZXh0IGZpbGw9IiMwMDAwMDAiIGZvbnQtZmFtaWx5PSJzYW5zLXNlcmlmIiBmb250LXNpemU9IjE0IiBsZW5ndGhBZGp1c3Q9InNwYWNpbmciIHRleHRMZW5ndGg9IjIxOSIgeD0iMzE1LjUiIHk9IjMzOS4xMjUiPnJ1blNjZW5TZXYoc2NucjogU2Nhbm5lcik6IHZvaWQ8L3RleHQ+PC9nPjwhLS1saW5rIE1haW4gdG8gTWVudUluaXRpYWxpemF0aW9uRGF0YWJhc2UtLT48ZyBpZD0ibGlua19NYWluX01lbnVJbml0aWFsaXphdGlvbkRhdGFiYXNlIj48cGF0aCBjb2RlTGluZT0iMjIiIGQ9Ik0yNjIuMzgsMTAyLjIxIEMyMzUuNDIsMTM3LjI2IDE5NS4yMjgxLDE4OS41MDQyIDE2OC4yNjgxLDIyNC41NTQyICIgZmlsbD0ibm9uZSIgaWQ9Ik1haW4tdG8tTWVudUluaXRpYWxpemF0aW9uRGF0YWJhc2UiIHN0eWxlPSJzdHJva2U6IzE4MTgxODtzdHJva2Utd2lkdGg6MS4wO3N0cm9rZS1kYXNoYXJyYXk6Ny4wLDcuMDsiLz48cG9seWdvbiBmaWxsPSIjMTgxODE4IiBwb2ludHM9IjE2NC42MSwyMjkuMzEsMTczLjI2NzgsMjI0LjYxNSwxNjcuNjU4NCwyMjUuMzQ2OCwxNjYuOTI2NiwyMTkuNzM3NSwxNjQuNjEsMjI5LjMxIiBzdHlsZT0ic3Ryb2tlOiMxODE4MTg7c3Ryb2tlLXdpZHRoOjEuMDsiLz48dGV4dCBmaWxsPSIjMDAwMDAwIiBmb250LWZhbWlseT0ic2Fucy1zZXJpZiIgZm9udC1zaXplPSIxMyIgbGVuZ3RoQWRqdXN0PSJzcGFjaW5nIiB0ZXh0TGVuZ3RoPSIyOCIgeD0iMjQwIiB5PSIxNDUuMjg5MSI+dXNlczwvdGV4dD48L2c+PCEtLWxpbmsgTWFpbiB0byBEZWNpc2lvbkNvZGUtLT48ZyBpZD0ibGlua19NYWluX0RlY2lzaW9uQ29kZSI+PHBhdGggY29kZUxpbmU9IjIzIiBkPSJNMzA5Ljc4LDEwMi4yMSBDMzI1LjU0LDEyMi41NSAzNDMuMzQ2NCwxNDUuNTM2MSAzNjMuOTA2NCwxNzIuMDg2MSAiIGZpbGw9Im5vbmUiIGlkPSJNYWluLXRvLURlY2lzaW9uQ29kZSIgc3R5bGU9InN0cm9rZTojMTgxODE4O3N0cm9rZS13aWR0aDoxLjA7c3Ryb2tlLWRhc2hhcnJheTo3LjAsNy4wOyIvPjxwb2x5Z29uIGZpbGw9IiMxODE4MTgiIHBvaW50cz0iMzY3LjU4LDE3Ni44MywzNjUuMjMyMiwxNjcuMjY1MSwzNjQuNTE4NywxNzIuODc2OCwzNTguOTA3LDE3Mi4xNjMyLDM2Ny41OCwxNzYuODMiIHN0eWxlPSJzdHJva2U6IzE4MTgxODtzdHJva2Utd2lkdGg6MS4wOyIvPjx0ZXh0IGZpbGw9IiMwMDAwMDAiIGZvbnQtZmFtaWx5PSJzYW5zLXNlcmlmIiBmb250LXNpemU9IjEzIiBsZW5ndGhBZGp1c3Q9InNwYWNpbmciIHRleHRMZW5ndGg9IjMzIiB4PSIzNDIiIHk9IjE0NS4yODkxIj5jYWxsczwvdGV4dD48L2c+PCEtLVNSQz1bWlBBblFpRDAzOFB0RnVMNmJxQjg0M2Z1dzU5SncxMHdFNWw5ZTlvNUFzaGhva2RFQkdyLXp2bzNLdDkzbWNhS2Rwdi05N3NaLVNBRU82M3Jjd1ZyNmV2NTBSNUNad2dtSFBST1dRS1VPT1lENGJzZDVKSlVpTkdWLXVTQUhpbGo2UGdJT1BCbTlrbVBVX3YzcHJQZ3o3WDBmS0o5NXVKY1dHakl0akpNUDVZWnhDTXNnU1c1Y1ZDc1hrSFRnNUdaQmdPcUE0QmtzbFBGcC1JaDNJdUpwUFZrVmNtay1VYWVFb2dGa01aM2x4YWFaUlY5UFVfZEJyWWpka3pUajhBV2YyY1VOQWUyV3RzbG5ORzJdLS0+PC9nPjwvc3ZnPg==;" vertex="1" parent="1">
            <mxGeometry y="280" width="659.56" height="410" as="geometry" />
          </mxCell>
        </UserObject>
        <UserObject label="" plantUmlData="{&#xa;  &quot;data&quot;: &quot;@startuml\npackage mist4600 {\n\n    class DecisionCode {\n        + runScenOne(scnr: Scanner): void\n        + runScenTwo(scnr: Scanner): void\n        + runScenThree(scnr: Scanner): void\n        + runMainScenOne(scnr: Scanner): void\n        + runScenFour(scnr: Scanner): void\n        + runScenFive(scnr: Scanner): void\n        + runScenSix(scnr: Scanner): void\n        + runScenSev(scnr: Scanner): void\n    }\n\n    class MenuItem {\n        + fetchFoodByName(name: String): MenuItem\n    }\n\n    class ChangeLog {\n        + changes: List&lt;String&gt;\n        + suggestedChanges: List&lt;String&gt;\n        + addChangesMade(): void\n        + delChangesMade(): void\n        + printChangeLog(): void\n        + tempPrintChangeLog(): void\n        + printSuggestedChangeLog(): void\n    }\n\n    class CubanSandwich {\n        + getCubanType(): HashSet&lt;CubanSandwich&gt;\n    }\n\n    class CheckOpenDay {\n        + dayCheck(scnr: Scanner): void\n    }\n\n    DecisionCode ..&gt; MenuItem : uses\n    DecisionCode ..&gt; ChangeLog : uses\n    DecisionCode ..&gt; CubanSandwich : uses\n    DecisionCode ..&gt; CheckOpenDay : uses\n}\n@enduml\n&quot;,&#xa;  &quot;format&quot;: &quot;svg&quot;&#xa;}" id="AbrqSRjT-VkLlUDZxHWG-1">
          <mxCell style="shape=image;noLabel=1;verticalAlign=top;aspect=fixed;imageAspect=0;image=data:image/svg+xml,PD94bWwgdmVyc2lvbj0iMS4wIiBlbmNvZGluZz0idXMtYXNjaWkiIHN0YW5kYWxvbmU9Im5vIj8+PHN2ZyB4bWxucz0iaHR0cDovL3d3dy53My5vcmcvMjAwMC9zdmciIHhtbG5zOnhsaW5rPSJodHRwOi8vd3d3LnczLm9yZy8xOTk5L3hsaW5rIiBjb250ZW50U3R5bGVUeXBlPSJ0ZXh0L2NzcyIgaGVpZ2h0PSI0NThweCIgcHJlc2VydmVBc3BlY3RSYXRpbz0ibm9uZSIgc3R5bGU9IndpZHRoOjEyMjVweDtoZWlnaHQ6NDU4cHg7YmFja2dyb3VuZDojRkZGRkZGOyIgdmVyc2lvbj0iMS4xIiB2aWV3Qm94PSIwIDAgMTIyNSA0NTgiIHdpZHRoPSIxMjI1cHgiIHpvb21BbmRQYW49Im1hZ25pZnkiPjxkZWZzLz48Zz48IS0tY2x1c3RlciBtaXN0NDYwMC0tPjxnIGlkPSJjbHVzdGVyX21pc3Q0NjAwIj48cGF0aCBkPSJNOC41LDYgTDY2LjUsNiBBMy43NSwzLjc1IDAgMCAxIDY5LDguNSBMNzYsMjYuOTg0NCBMMTIxNS41LDI2Ljk4NDQgQTIuNSwyLjUgMCAwIDEgMTIxOCwyOS40ODQ0IEwxMjE4LDQ0OC41IEEyLjUsMi41IDAgMCAxIDEyMTUuNSw0NTEgTDguNSw0NTEgQTIuNSwyLjUgMCAwIDEgNiw0NDguNSBMNiw4LjUgQTIuNSwyLjUgMCAwIDEgOC41LDYgIiBmaWxsPSJub25lIiBzdHlsZT0ic3Ryb2tlOiMwMDAwMDA7c3Ryb2tlLXdpZHRoOjEuNTsiLz48bGluZSBzdHlsZT0ic3Ryb2tlOiMwMDAwMDA7c3Ryb2tlLXdpZHRoOjEuNTsiIHgxPSI2IiB4Mj0iNzYiIHkxPSIyNi45ODQ0IiB5Mj0iMjYuOTg0NCIvPjx0ZXh0IGZpbGw9IiMwMDAwMDAiIGZvbnQtZmFtaWx5PSJzYW5zLXNlcmlmIiBmb250LXNpemU9IjE0IiBmb250LXdlaWdodD0iYm9sZCIgbGVuZ3RoQWRqdXN0PSJzcGFjaW5nIiB0ZXh0TGVuZ3RoPSI1NyIgeD0iMTAiIHk9IjIxLjIzNDQiPm1pc3Q0NjAwPC90ZXh0PjwvZz48IS0tY2xhc3MgRGVjaXNpb25Db2RlLS0+PGcgaWQ9ImVsZW1fRGVjaXNpb25Db2RlIj48cmVjdCBjb2RlTGluZT0iMyIgZmlsbD0iI0YxRjFGMSIgaGVpZ2h0PSIxNjcuODc1IiBpZD0iRGVjaXNpb25Db2RlIiByeD0iMi41IiByeT0iMi41IiBzdHlsZT0ic3Ryb2tlOiMxODE4MTg7c3Ryb2tlLXdpZHRoOjAuNTsiIHdpZHRoPSIyNzMiIHg9IjQ0MS41IiB5PSIzOSIvPjxlbGxpcHNlIGN4PSI1MzEuNzUiIGN5PSI1NSIgZmlsbD0iI0FERDFCMiIgcng9IjExIiByeT0iMTEiIHN0eWxlPSJzdHJva2U6IzE4MTgxODtzdHJva2Utd2lkdGg6MS4wOyIvPjxwYXRoIGQ9Ik01MjkuMzc1LDU5LjI1IEw1MjkuMzc1LDYxIEw1MzQuMzEyNSw2MSBMNTM0LjMxMjUsNTkuMjUgTDUyOS4zNzUsNTkuMjUgWiBNNTMwLjA2MjUsNTkuOTM3NSBRNTMwLjA2MjUsNTkuOTM3NSA1MzAuMDYyNSw1MC43NSBMNTI4LjMxMjUsNTAuNzUgUTUyOC4zMTI1LDUwLjc1IDUyOC4zMTI1LDU5LjkzNzUgTDUzMC4wNjI1LDU5LjkzNzUgWiBNNTMzLjYyNSw1OS45Mzc1IEw1MzUuMzc1LDU5LjkzNzUgUTUzNS4zNzUsNTkuOTM3NSA1MzUuMzc1LDU3LjEyNSBMNTMzLjYyNSw1Ny4xMjUgUTUzMy42MjUsNTcuMTI1IDUzMy42MjUsNTkuOTM3NSBaIE01MzMuNjI1LDUwLjc1IFE1MzMuNjI1LDUwLjc1IDUzMy42MjUsNTMuNTYyNSBMNTM1LjM3NSw1My41NjI1IFE1MzUuMzc1LDUzLjU2MjUgNTM1LjM3NSw1MC43NSBMNTMzLjYyNSw1MC43NSBaIE01MjkuMzc1LDUxLjQzNzUgTDUzNC4zMTI1LDUxLjQzNzUgTDUzNC4zMTI1LDQ5LjY4NzUgTDUyOS4zNzUsNDkuNjg3NSBMNTI5LjM3NSw1MS40Mzc1IFogIiBmaWxsPSIjMDAwMDAwIi8+PHRleHQgZmlsbD0iIzAwMDAwMCIgZm9udC1mYW1pbHk9InNhbnMtc2VyaWYiIGZvbnQtc2l6ZT0iMTQiIGxlbmd0aEFkanVzdD0ic3BhY2luZyIgdGV4dExlbmd0aD0iODQiIHg9IjU1Mi4yNSIgeT0iNjAuNzQyMiI+RGVjaXNpb25Db2RlPC90ZXh0PjxsaW5lIHN0eWxlPSJzdHJva2U6IzE4MTgxODtzdHJva2Utd2lkdGg6MC41OyIgeDE9IjQ0Mi41IiB4Mj0iNzEzLjUiIHkxPSI3MSIgeTI9IjcxIi8+PGxpbmUgc3R5bGU9InN0cm9rZTojMTgxODE4O3N0cm9rZS13aWR0aDowLjU7IiB4MT0iNDQyLjUiIHgyPSI3MTMuNSIgeTE9Ijc5IiB5Mj0iNzkiLz48ZWxsaXBzZSBjeD0iNDUyLjUiIGN5PSI5MS45OTIyIiBmaWxsPSIjODRCRTg0IiByeD0iMyIgcnk9IjMiIHN0eWxlPSJzdHJva2U6IzAzODA0ODtzdHJva2Utd2lkdGg6MS4wOyIvPjx0ZXh0IGZpbGw9IiMwMDAwMDAiIGZvbnQtZmFtaWx5PSJzYW5zLXNlcmlmIiBmb250LXNpemU9IjE0IiBsZW5ndGhBZGp1c3Q9InNwYWNpbmciIHRleHRMZW5ndGg9IjIxOSIgeD0iNDYxLjUiIHk9Ijk2LjIzNDQiPnJ1blNjZW5PbmUoc2NucjogU2Nhbm5lcik6IHZvaWQ8L3RleHQ+PGVsbGlwc2UgY3g9IjQ1Mi41IiBjeT0iMTA2Ljk3NjYiIGZpbGw9IiM4NEJFODQiIHJ4PSIzIiByeT0iMyIgc3R5bGU9InN0cm9rZTojMDM4MDQ4O3N0cm9rZS13aWR0aDoxLjA7Ii8+PHRleHQgZmlsbD0iIzAwMDAwMCIgZm9udC1mYW1pbHk9InNhbnMtc2VyaWYiIGZvbnQtc2l6ZT0iMTQiIGxlbmd0aEFkanVzdD0ic3BhY2luZyIgdGV4dExlbmd0aD0iMjIwIiB4PSI0NjEuNSIgeT0iMTExLjIxODgiPnJ1blNjZW5Ud28oc2NucjogU2Nhbm5lcik6IHZvaWQ8L3RleHQ+PGVsbGlwc2UgY3g9IjQ1Mi41IiBjeT0iMTIxLjk2MDkiIGZpbGw9IiM4NEJFODQiIHJ4PSIzIiByeT0iMyIgc3R5bGU9InN0cm9rZTojMDM4MDQ4O3N0cm9rZS13aWR0aDoxLjA7Ii8+PHRleHQgZmlsbD0iIzAwMDAwMCIgZm9udC1mYW1pbHk9InNhbnMtc2VyaWYiIGZvbnQtc2l6ZT0iMTQiIGxlbmd0aEFkanVzdD0ic3BhY2luZyIgdGV4dExlbmd0aD0iMjMzIiB4PSI0NjEuNSIgeT0iMTI2LjIwMzEiPnJ1blNjZW5UaHJlZShzY25yOiBTY2FubmVyKTogdm9pZDwvdGV4dD48ZWxsaXBzZSBjeD0iNDUyLjUiIGN5PSIxMzYuOTQ1MyIgZmlsbD0iIzg0QkU4NCIgcng9IjMiIHJ5PSIzIiBzdHlsZT0ic3Ryb2tlOiMwMzgwNDg7c3Ryb2tlLXdpZHRoOjEuMDsiLz48dGV4dCBmaWxsPSIjMDAwMDAwIiBmb250LWZhbWlseT0ic2Fucy1zZXJpZiIgZm9udC1zaXplPSIxNCIgbGVuZ3RoQWRqdXN0PSJzcGFjaW5nIiB0ZXh0TGVuZ3RoPSIyNDciIHg9IjQ2MS41IiB5PSIxNDEuMTg3NSI+cnVuTWFpblNjZW5PbmUoc2NucjogU2Nhbm5lcik6IHZvaWQ8L3RleHQ+PGVsbGlwc2UgY3g9IjQ1Mi41IiBjeT0iMTUxLjkyOTciIGZpbGw9IiM4NEJFODQiIHJ4PSIzIiByeT0iMyIgc3R5bGU9InN0cm9rZTojMDM4MDQ4O3N0cm9rZS13aWR0aDoxLjA7Ii8+PHRleHQgZmlsbD0iIzAwMDAwMCIgZm9udC1mYW1pbHk9InNhbnMtc2VyaWYiIGZvbnQtc2l6ZT0iMTQiIGxlbmd0aEFkanVzdD0ic3BhY2luZyIgdGV4dExlbmd0aD0iMjI2IiB4PSI0NjEuNSIgeT0iMTU2LjE3MTkiPnJ1blNjZW5Gb3VyKHNjbnI6IFNjYW5uZXIpOiB2b2lkPC90ZXh0PjxlbGxpcHNlIGN4PSI0NTIuNSIgY3k9IjE2Ni45MTQxIiBmaWxsPSIjODRCRTg0IiByeD0iMyIgcnk9IjMiIHN0eWxlPSJzdHJva2U6IzAzODA0ODtzdHJva2Utd2lkdGg6MS4wOyIvPjx0ZXh0IGZpbGw9IiMwMDAwMDAiIGZvbnQtZmFtaWx5PSJzYW5zLXNlcmlmIiBmb250LXNpemU9IjE0IiBsZW5ndGhBZGp1c3Q9InNwYWNpbmciIHRleHRMZW5ndGg9IjIyNiIgeD0iNDYxLjUiIHk9IjE3MS4xNTYzIj5ydW5TY2VuRml2ZShzY25yOiBTY2FubmVyKTogdm9pZDwvdGV4dD48ZWxsaXBzZSBjeD0iNDUyLjUiIGN5PSIxODEuODk4NCIgZmlsbD0iIzg0QkU4NCIgcng9IjMiIHJ5PSIzIiBzdHlsZT0ic3Ryb2tlOiMwMzgwNDg7c3Ryb2tlLXdpZHRoOjEuMDsiLz48dGV4dCBmaWxsPSIjMDAwMDAwIiBmb250LWZhbWlseT0ic2Fucy1zZXJpZiIgZm9udC1zaXplPSIxNCIgbGVuZ3RoQWRqdXN0PSJzcGFjaW5nIiB0ZXh0TGVuZ3RoPSIyMTkiIHg9IjQ2MS41IiB5PSIxODYuMTQwNiI+cnVuU2NlblNpeChzY25yOiBTY2FubmVyKTogdm9pZDwvdGV4dD48ZWxsaXBzZSBjeD0iNDUyLjUiIGN5PSIxOTYuODgyOCIgZmlsbD0iIzg0QkU4NCIgcng9IjMiIHJ5PSIzIiBzdHlsZT0ic3Ryb2tlOiMwMzgwNDg7c3Ryb2tlLXdpZHRoOjEuMDsiLz48dGV4dCBmaWxsPSIjMDAwMDAwIiBmb250LWZhbWlseT0ic2Fucy1zZXJpZiIgZm9udC1zaXplPSIxNCIgbGVuZ3RoQWRqdXN0PSJzcGFjaW5nIiB0ZXh0TGVuZ3RoPSIyMTkiIHg9IjQ2MS41IiB5PSIyMDEuMTI1Ij5ydW5TY2VuU2V2KHNjbnI6IFNjYW5uZXIpOiB2b2lkPC90ZXh0PjwvZz48IS0tY2xhc3MgTWVudUl0ZW0tLT48ZyBpZD0iZWxlbV9NZW51SXRlbSI+PHJlY3QgY29kZUxpbmU9IjE0IiBmaWxsPSIjRjFGMUYxIiBoZWlnaHQ9IjYyLjk4NDQiIGlkPSJNZW51SXRlbSIgcng9IjIuNSIgcnk9IjIuNSIgc3R5bGU9InN0cm9rZTojMTgxODE4O3N0cm9rZS13aWR0aDowLjU7IiB3aWR0aD0iMzA0IiB4PSIyMiIgeT0iMzI3Ii8+PGVsbGlwc2UgY3g9IjE0MS4yNSIgY3k9IjM0MyIgZmlsbD0iI0FERDFCMiIgcng9IjExIiByeT0iMTEiIHN0eWxlPSJzdHJva2U6IzE4MTgxODtzdHJva2Utd2lkdGg6MS4wOyIvPjxwYXRoIGQ9Ik0xMzguODc1LDM0Ny4yNSBMMTM4Ljg3NSwzNDkgTDE0My44MTI1LDM0OSBMMTQzLjgxMjUsMzQ3LjI1IEwxMzguODc1LDM0Ny4yNSBaIE0xMzkuNTYyNSwzNDcuOTM3NSBRMTM5LjU2MjUsMzQ3LjkzNzUgMTM5LjU2MjUsMzM4Ljc1IEwxMzcuODEyNSwzMzguNzUgUTEzNy44MTI1LDMzOC43NSAxMzcuODEyNSwzNDcuOTM3NSBMMTM5LjU2MjUsMzQ3LjkzNzUgWiBNMTQzLjEyNSwzNDcuOTM3NSBMMTQ0Ljg3NSwzNDcuOTM3NSBRMTQ0Ljg3NSwzNDcuOTM3NSAxNDQuODc1LDM0NS4xMjUgTDE0My4xMjUsMzQ1LjEyNSBRMTQzLjEyNSwzNDUuMTI1IDE0My4xMjUsMzQ3LjkzNzUgWiBNMTQzLjEyNSwzMzguNzUgUTE0My4xMjUsMzM4Ljc1IDE0My4xMjUsMzQxLjU2MjUgTDE0NC44NzUsMzQxLjU2MjUgUTE0NC44NzUsMzQxLjU2MjUgMTQ0Ljg3NSwzMzguNzUgTDE0My4xMjUsMzM4Ljc1IFogTTEzOC44NzUsMzM5LjQzNzUgTDE0My44MTI1LDMzOS40Mzc1IEwxNDMuODEyNSwzMzcuNjg3NSBMMTM4Ljg3NSwzMzcuNjg3NSBMMTM4Ljg3NSwzMzkuNDM3NSBaICIgZmlsbD0iIzAwMDAwMCIvPjx0ZXh0IGZpbGw9IiMwMDAwMDAiIGZvbnQtZmFtaWx5PSJzYW5zLXNlcmlmIiBmb250LXNpemU9IjE0IiBsZW5ndGhBZGp1c3Q9InNwYWNpbmciIHRleHRMZW5ndGg9IjU3IiB4PSIxNjEuNzUiIHk9IjM0OC43NDIyIj5NZW51SXRlbTwvdGV4dD48bGluZSBzdHlsZT0ic3Ryb2tlOiMxODE4MTg7c3Ryb2tlLXdpZHRoOjAuNTsiIHgxPSIyMyIgeDI9IjMyNSIgeTE9IjM1OSIgeTI9IjM1OSIvPjxsaW5lIHN0eWxlPSJzdHJva2U6IzE4MTgxODtzdHJva2Utd2lkdGg6MC41OyIgeDE9IjIzIiB4Mj0iMzI1IiB5MT0iMzY3IiB5Mj0iMzY3Ii8+PGVsbGlwc2UgY3g9IjMzIiBjeT0iMzc5Ljk5MjIiIGZpbGw9IiM4NEJFODQiIHJ4PSIzIiByeT0iMyIgc3R5bGU9InN0cm9rZTojMDM4MDQ4O3N0cm9rZS13aWR0aDoxLjA7Ii8+PHRleHQgZmlsbD0iIzAwMDAwMCIgZm9udC1mYW1pbHk9InNhbnMtc2VyaWYiIGZvbnQtc2l6ZT0iMTQiIGxlbmd0aEFkanVzdD0ic3BhY2luZyIgdGV4dExlbmd0aD0iMjc4IiB4PSI0MiIgeT0iMzg0LjIzNDQiPmZldGNoRm9vZEJ5TmFtZShuYW1lOiBTdHJpbmcpOiBNZW51SXRlbTwvdGV4dD48L2c+PCEtLWNsYXNzIENoYW5nZUxvZy0tPjxnIGlkPSJlbGVtX0NoYW5nZUxvZyI+PHJlY3QgY29kZUxpbmU9IjE4IiBmaWxsPSIjRjFGMUYxIiBoZWlnaHQ9IjE1Mi44OTA2IiBpZD0iQ2hhbmdlTG9nIiByeD0iMi41IiByeT0iMi41IiBzdHlsZT0ic3Ryb2tlOiMxODE4MTg7c3Ryb2tlLXdpZHRoOjAuNTsiIHdpZHRoPSIyNDUiIHg9IjM2MS41IiB5PSIyODIiLz48ZWxsaXBzZSBjeD0iNDQ4LjI1IiBjeT0iMjk4IiBmaWxsPSIjQUREMUIyIiByeD0iMTEiIHJ5PSIxMSIgc3R5bGU9InN0cm9rZTojMTgxODE4O3N0cm9rZS13aWR0aDoxLjA7Ii8+PHBhdGggZD0iTTQ0NS44NzUsMzAyLjI1IEw0NDUuODc1LDMwNCBMNDUwLjgxMjUsMzA0IEw0NTAuODEyNSwzMDIuMjUgTDQ0NS44NzUsMzAyLjI1IFogTTQ0Ni41NjI1LDMwMi45Mzc1IFE0NDYuNTYyNSwzMDIuOTM3NSA0NDYuNTYyNSwyOTMuNzUgTDQ0NC44MTI1LDI5My43NSBRNDQ0LjgxMjUsMjkzLjc1IDQ0NC44MTI1LDMwMi45Mzc1IEw0NDYuNTYyNSwzMDIuOTM3NSBaIE00NTAuMTI1LDMwMi45Mzc1IEw0NTEuODc1LDMwMi45Mzc1IFE0NTEuODc1LDMwMi45Mzc1IDQ1MS44NzUsMzAwLjEyNSBMNDUwLjEyNSwzMDAuMTI1IFE0NTAuMTI1LDMwMC4xMjUgNDUwLjEyNSwzMDIuOTM3NSBaIE00NTAuMTI1LDI5My43NSBRNDUwLjEyNSwyOTMuNzUgNDUwLjEyNSwyOTYuNTYyNSBMNDUxLjg3NSwyOTYuNTYyNSBRNDUxLjg3NSwyOTYuNTYyNSA0NTEuODc1LDI5My43NSBMNDUwLjEyNSwyOTMuNzUgWiBNNDQ1Ljg3NSwyOTQuNDM3NSBMNDUwLjgxMjUsMjk0LjQzNzUgTDQ1MC44MTI1LDI5Mi42ODc1IEw0NDUuODc1LDI5Mi42ODc1IEw0NDUuODc1LDI5NC40Mzc1IFogIiBmaWxsPSIjMDAwMDAwIi8+PHRleHQgZmlsbD0iIzAwMDAwMCIgZm9udC1mYW1pbHk9InNhbnMtc2VyaWYiIGZvbnQtc2l6ZT0iMTQiIGxlbmd0aEFkanVzdD0ic3BhY2luZyIgdGV4dExlbmd0aD0iNjMiIHg9IjQ2OC43NSIgeT0iMzAzLjc0MjIiPkNoYW5nZUxvZzwvdGV4dD48bGluZSBzdHlsZT0ic3Ryb2tlOiMxODE4MTg7c3Ryb2tlLXdpZHRoOjAuNTsiIHgxPSIzNjIuNSIgeDI9IjYwNS41IiB5MT0iMzE0IiB5Mj0iMzE0Ii8+PGVsbGlwc2UgY3g9IjM3Mi41IiBjeT0iMzI2Ljk5MjIiIGZpbGw9Im5vbmUiIHJ4PSIzIiByeT0iMyIgc3R5bGU9InN0cm9rZTojMDM4MDQ4O3N0cm9rZS13aWR0aDoxLjA7Ii8+PHRleHQgZmlsbD0iIzAwMDAwMCIgZm9udC1mYW1pbHk9InNhbnMtc2VyaWYiIGZvbnQtc2l6ZT0iMTQiIGxlbmd0aEFkanVzdD0ic3BhY2luZyIgdGV4dExlbmd0aD0iMTQ3IiB4PSIzODEuNSIgeT0iMzMxLjIzNDQiPmNoYW5nZXM6IExpc3QmbHQ7U3RyaW5nJmd0OzwvdGV4dD48ZWxsaXBzZSBjeD0iMzcyLjUiIGN5PSIzNDEuOTc2NiIgZmlsbD0ibm9uZSIgcng9IjMiIHJ5PSIzIiBzdHlsZT0ic3Ryb2tlOiMwMzgwNDg7c3Ryb2tlLXdpZHRoOjEuMDsiLz48dGV4dCBmaWxsPSIjMDAwMDAwIiBmb250LWZhbWlseT0ic2Fucy1zZXJpZiIgZm9udC1zaXplPSIxNCIgbGVuZ3RoQWRqdXN0PSJzcGFjaW5nIiB0ZXh0TGVuZ3RoPSIyMTAiIHg9IjM4MS41IiB5PSIzNDYuMjE4OCI+c3VnZ2VzdGVkQ2hhbmdlczogTGlzdCZsdDtTdHJpbmcmZ3Q7PC90ZXh0PjxsaW5lIHN0eWxlPSJzdHJva2U6IzE4MTgxODtzdHJva2Utd2lkdGg6MC41OyIgeDE9IjM2Mi41IiB4Mj0iNjA1LjUiIHkxPSIzNTEuOTY4OCIgeTI9IjM1MS45Njg4Ii8+PGVsbGlwc2UgY3g9IjM3Mi41IiBjeT0iMzY0Ljk2MDkiIGZpbGw9IiM4NEJFODQiIHJ4PSIzIiByeT0iMyIgc3R5bGU9InN0cm9rZTojMDM4MDQ4O3N0cm9rZS13aWR0aDoxLjA7Ii8+PHRleHQgZmlsbD0iIzAwMDAwMCIgZm9udC1mYW1pbHk9InNhbnMtc2VyaWYiIGZvbnQtc2l6ZT0iMTQiIGxlbmd0aEFkanVzdD0ic3BhY2luZyIgdGV4dExlbmd0aD0iMTU2IiB4PSIzODEuNSIgeT0iMzY5LjIwMzEiPmFkZENoYW5nZXNNYWRlKCk6IHZvaWQ8L3RleHQ+PGVsbGlwc2UgY3g9IjM3Mi41IiBjeT0iMzc5Ljk0NTMiIGZpbGw9IiM4NEJFODQiIHJ4PSIzIiByeT0iMyIgc3R5bGU9InN0cm9rZTojMDM4MDQ4O3N0cm9rZS13aWR0aDoxLjA7Ii8+PHRleHQgZmlsbD0iIzAwMDAwMCIgZm9udC1mYW1pbHk9InNhbnMtc2VyaWYiIGZvbnQtc2l6ZT0iMTQiIGxlbmd0aEFkanVzdD0ic3BhY2luZyIgdGV4dExlbmd0aD0iMTU2IiB4PSIzODEuNSIgeT0iMzg0LjE4NzUiPmRlbENoYW5nZXNNYWRlKCk6IHZvaWQ8L3RleHQ+PGVsbGlwc2UgY3g9IjM3Mi41IiBjeT0iMzk0LjkyOTciIGZpbGw9IiM4NEJFODQiIHJ4PSIzIiByeT0iMyIgc3R5bGU9InN0cm9rZTojMDM4MDQ4O3N0cm9rZS13aWR0aDoxLjA7Ii8+PHRleHQgZmlsbD0iIzAwMDAwMCIgZm9udC1mYW1pbHk9InNhbnMtc2VyaWYiIGZvbnQtc2l6ZT0iMTQiIGxlbmd0aEFkanVzdD0ic3BhY2luZyIgdGV4dExlbmd0aD0iMTU2IiB4PSIzODEuNSIgeT0iMzk5LjE3MTkiPnByaW50Q2hhbmdlTG9nKCk6IHZvaWQ8L3RleHQ+PGVsbGlwc2UgY3g9IjM3Mi41IiBjeT0iNDA5LjkxNDEiIGZpbGw9IiM4NEJFODQiIHJ4PSIzIiByeT0iMyIgc3R5bGU9InN0cm9rZTojMDM4MDQ4O3N0cm9rZS13aWR0aDoxLjA7Ii8+PHRleHQgZmlsbD0iIzAwMDAwMCIgZm9udC1mYW1pbHk9InNhbnMtc2VyaWYiIGZvbnQtc2l6ZT0iMTQiIGxlbmd0aEFkanVzdD0ic3BhY2luZyIgdGV4dExlbmd0aD0iMTg1IiB4PSIzODEuNSIgeT0iNDE0LjE1NjMiPnRlbXBQcmludENoYW5nZUxvZygpOiB2b2lkPC90ZXh0PjxlbGxpcHNlIGN4PSIzNzIuNSIgY3k9IjQyNC44OTg0IiBmaWxsPSIjODRCRTg0IiByeD0iMyIgcnk9IjMiIHN0eWxlPSJzdHJva2U6IzAzODA0ODtzdHJva2Utd2lkdGg6MS4wOyIvPjx0ZXh0IGZpbGw9IiMwMDAwMDAiIGZvbnQtZmFtaWx5PSJzYW5zLXNlcmlmIiBmb250LXNpemU9IjE0IiBsZW5ndGhBZGp1c3Q9InNwYWNpbmciIHRleHRMZW5ndGg9IjIxOSIgeD0iMzgxLjUiIHk9IjQyOS4xNDA2Ij5wcmludFN1Z2dlc3RlZENoYW5nZUxvZygpOiB2b2lkPC90ZXh0PjwvZz48IS0tY2xhc3MgQ3ViYW5TYW5kd2ljaC0tPjxnIGlkPSJlbGVtX0N1YmFuU2FuZHdpY2giPjxyZWN0IGNvZGVMaW5lPSIyOCIgZmlsbD0iI0YxRjFGMSIgaGVpZ2h0PSI2Mi45ODQ0IiBpZD0iQ3ViYW5TYW5kd2ljaCIgcng9IjIuNSIgcnk9IjIuNSIgc3R5bGU9InN0cm9rZTojMTgxODE4O3N0cm9rZS13aWR0aDowLjU7IiB3aWR0aD0iMjk1IiB4PSI2NDEuNSIgeT0iMzI3Ii8+PGVsbGlwc2UgY3g9IjczOC43NSIgY3k9IjM0MyIgZmlsbD0iI0FERDFCMiIgcng9IjExIiByeT0iMTEiIHN0eWxlPSJzdHJva2U6IzE4MTgxODtzdHJva2Utd2lkdGg6MS4wOyIvPjxwYXRoIGQ9Ik03MzYuMzc1LDM0Ny4yNSBMNzM2LjM3NSwzNDkgTDc0MS4zMTI1LDM0OSBMNzQxLjMxMjUsMzQ3LjI1IEw3MzYuMzc1LDM0Ny4yNSBaIE03MzcuMDYyNSwzNDcuOTM3NSBRNzM3LjA2MjUsMzQ3LjkzNzUgNzM3LjA2MjUsMzM4Ljc1IEw3MzUuMzEyNSwzMzguNzUgUTczNS4zMTI1LDMzOC43NSA3MzUuMzEyNSwzNDcuOTM3NSBMNzM3LjA2MjUsMzQ3LjkzNzUgWiBNNzQwLjYyNSwzNDcuOTM3NSBMNzQyLjM3NSwzNDcuOTM3NSBRNzQyLjM3NSwzNDcuOTM3NSA3NDIuMzc1LDM0NS4xMjUgTDc0MC42MjUsMzQ1LjEyNSBRNzQwLjYyNSwzNDUuMTI1IDc0MC42MjUsMzQ3LjkzNzUgWiBNNzQwLjYyNSwzMzguNzUgUTc0MC42MjUsMzM4Ljc1IDc0MC42MjUsMzQxLjU2MjUgTDc0Mi4zNzUsMzQxLjU2MjUgUTc0Mi4zNzUsMzQxLjU2MjUgNzQyLjM3NSwzMzguNzUgTDc0MC42MjUsMzM4Ljc1IFogTTczNi4zNzUsMzM5LjQzNzUgTDc0MS4zMTI1LDMzOS40Mzc1IEw3NDEuMzEyNSwzMzcuNjg3NSBMNzM2LjM3NSwzMzcuNjg3NSBMNzM2LjM3NSwzMzkuNDM3NSBaICIgZmlsbD0iIzAwMDAwMCIvPjx0ZXh0IGZpbGw9IiMwMDAwMDAiIGZvbnQtZmFtaWx5PSJzYW5zLXNlcmlmIiBmb250LXNpemU9IjE0IiBsZW5ndGhBZGp1c3Q9InNwYWNpbmciIHRleHRMZW5ndGg9IjkyIiB4PSI3NTkuMjUiIHk9IjM0OC43NDIyIj5DdWJhblNhbmR3aWNoPC90ZXh0PjxsaW5lIHN0eWxlPSJzdHJva2U6IzE4MTgxODtzdHJva2Utd2lkdGg6MC41OyIgeDE9IjY0Mi41IiB4Mj0iOTM1LjUiIHkxPSIzNTkiIHkyPSIzNTkiLz48bGluZSBzdHlsZT0ic3Ryb2tlOiMxODE4MTg7c3Ryb2tlLXdpZHRoOjAuNTsiIHgxPSI2NDIuNSIgeDI9IjkzNS41IiB5MT0iMzY3IiB5Mj0iMzY3Ii8+PGVsbGlwc2UgY3g9IjY1Mi41IiBjeT0iMzc5Ljk5MjIiIGZpbGw9IiM4NEJFODQiIHJ4PSIzIiByeT0iMyIgc3R5bGU9InN0cm9rZTojMDM4MDQ4O3N0cm9rZS13aWR0aDoxLjA7Ii8+PHRleHQgZmlsbD0iIzAwMDAwMCIgZm9udC1mYW1pbHk9InNhbnMtc2VyaWYiIGZvbnQtc2l6ZT0iMTQiIGxlbmd0aEFkanVzdD0ic3BhY2luZyIgdGV4dExlbmd0aD0iMjY5IiB4PSI2NjEuNSIgeT0iMzg0LjIzNDQiPmdldEN1YmFuVHlwZSgpOiBIYXNoU2V0Jmx0O0N1YmFuU2FuZHdpY2gmZ3Q7PC90ZXh0PjwvZz48IS0tY2xhc3MgQ2hlY2tPcGVuRGF5LS0+PGcgaWQ9ImVsZW1fQ2hlY2tPcGVuRGF5Ij48cmVjdCBjb2RlTGluZT0iMzIiIGZpbGw9IiNGMUYxRjEiIGhlaWdodD0iNjIuOTg0NCIgaWQ9IkNoZWNrT3BlbkRheSIgcng9IjIuNSIgcnk9IjIuNSIgc3R5bGU9InN0cm9rZTojMTgxODE4O3N0cm9rZS13aWR0aDowLjU7IiB3aWR0aD0iMjMxIiB4PSI5NzEuNSIgeT0iMzI3Ii8+PGVsbGlwc2UgY3g9IjEwNDAuNzUiIGN5PSIzNDMiIGZpbGw9IiNBREQxQjIiIHJ4PSIxMSIgcnk9IjExIiBzdHlsZT0ic3Ryb2tlOiMxODE4MTg7c3Ryb2tlLXdpZHRoOjEuMDsiLz48cGF0aCBkPSJNMTAzOC4zNzUsMzQ3LjI1IEwxMDM4LjM3NSwzNDkgTDEwNDMuMzEyNSwzNDkgTDEwNDMuMzEyNSwzNDcuMjUgTDEwMzguMzc1LDM0Ny4yNSBaIE0xMDM5LjA2MjUsMzQ3LjkzNzUgUTEwMzkuMDYyNSwzNDcuOTM3NSAxMDM5LjA2MjUsMzM4Ljc1IEwxMDM3LjMxMjUsMzM4Ljc1IFExMDM3LjMxMjUsMzM4Ljc1IDEwMzcuMzEyNSwzNDcuOTM3NSBMMTAzOS4wNjI1LDM0Ny45Mzc1IFogTTEwNDIuNjI1LDM0Ny45Mzc1IEwxMDQ0LjM3NSwzNDcuOTM3NSBRMTA0NC4zNzUsMzQ3LjkzNzUgMTA0NC4zNzUsMzQ1LjEyNSBMMTA0Mi42MjUsMzQ1LjEyNSBRMTA0Mi42MjUsMzQ1LjEyNSAxMDQyLjYyNSwzNDcuOTM3NSBaIE0xMDQyLjYyNSwzMzguNzUgUTEwNDIuNjI1LDMzOC43NSAxMDQyLjYyNSwzNDEuNTYyNSBMMTA0NC4zNzUsMzQxLjU2MjUgUTEwNDQuMzc1LDM0MS41NjI1IDEwNDQuMzc1LDMzOC43NSBMMTA0Mi42MjUsMzM4Ljc1IFogTTEwMzguMzc1LDMzOS40Mzc1IEwxMDQzLjMxMjUsMzM5LjQzNzUgTDEwNDMuMzEyNSwzMzcuNjg3NSBMMTAzOC4zNzUsMzM3LjY4NzUgTDEwMzguMzc1LDMzOS40Mzc1IFogIiBmaWxsPSIjMDAwMDAwIi8+PHRleHQgZmlsbD0iIzAwMDAwMCIgZm9udC1mYW1pbHk9InNhbnMtc2VyaWYiIGZvbnQtc2l6ZT0iMTQiIGxlbmd0aEFkanVzdD0ic3BhY2luZyIgdGV4dExlbmd0aD0iODQiIHg9IjEwNjEuMjUiIHk9IjM0OC43NDIyIj5DaGVja09wZW5EYXk8L3RleHQ+PGxpbmUgc3R5bGU9InN0cm9rZTojMTgxODE4O3N0cm9rZS13aWR0aDowLjU7IiB4MT0iOTcyLjUiIHgyPSIxMjAxLjUiIHkxPSIzNTkiIHkyPSIzNTkiLz48bGluZSBzdHlsZT0ic3Ryb2tlOiMxODE4MTg7c3Ryb2tlLXdpZHRoOjAuNTsiIHgxPSI5NzIuNSIgeDI9IjEyMDEuNSIgeTE9IjM2NyIgeTI9IjM2NyIvPjxlbGxpcHNlIGN4PSI5ODIuNSIgY3k9IjM3OS45OTIyIiBmaWxsPSIjODRCRTg0IiByeD0iMyIgcnk9IjMiIHN0eWxlPSJzdHJva2U6IzAzODA0ODtzdHJva2Utd2lkdGg6MS4wOyIvPjx0ZXh0IGZpbGw9IiMwMDAwMDAiIGZvbnQtZmFtaWx5PSJzYW5zLXNlcmlmIiBmb250LXNpemU9IjE0IiBsZW5ndGhBZGp1c3Q9InNwYWNpbmciIHRleHRMZW5ndGg9IjIwNSIgeD0iOTkxLjUiIHk9IjM4NC4yMzQ0Ij5kYXlDaGVjayhzY25yOiBTY2FubmVyKTogdm9pZDwvdGV4dD48L2c+PCEtLWxpbmsgRGVjaXNpb25Db2RlIHRvIE1lbnVJdGVtLS0+PGcgaWQ9ImxpbmtfRGVjaXNpb25Db2RlX01lbnVJdGVtIj48cGF0aCBjb2RlTGluZT0iMzYiIGQ9Ik00NDEuMjIsMjAzLjA1IEMzNjcuNjMsMjQ1LjU5IDI4Ni4yODQ2LDI5Mi41OTczIDIzMi4wODQ2LDMyMy45MjczICIgZmlsbD0ibm9uZSIgaWQ9IkRlY2lzaW9uQ29kZS10by1NZW51SXRlbSIgc3R5bGU9InN0cm9rZTojMTgxODE4O3N0cm9rZS13aWR0aDoxLjA7c3Ryb2tlLWRhc2hhcnJheTo3LjAsNy4wOyIvPjxwb2x5Z29uIGZpbGw9IiMxODE4MTgiIHBvaW50cz0iMjI2Ljg5LDMyNi45MywyMzYuNjgzNywzMjUuODg5LDIzMS4yMTg4LDMyNC40Mjc3LDIzMi42ODAxLDMxOC45NjI5LDIyNi44OSwzMjYuOTMiIHN0eWxlPSJzdHJva2U6IzE4MTgxODtzdHJva2Utd2lkdGg6MS4wOyIvPjx0ZXh0IGZpbGw9IiMwMDAwMDAiIGZvbnQtZmFtaWx5PSJzYW5zLXNlcmlmIiBmb250LXNpemU9IjEzIiBsZW5ndGhBZGp1c3Q9InNwYWNpbmciIHRleHRMZW5ndGg9IjI4IiB4PSIzNzciIHk9IjI1MC4yODkxIj51c2VzPC90ZXh0PjwvZz48IS0tbGluayBEZWNpc2lvbkNvZGUgdG8gQ2hhbmdlTG9nLS0+PGcgaWQ9ImxpbmtfRGVjaXNpb25Db2RlX0NoYW5nZUxvZyI+PHBhdGggY29kZUxpbmU9IjM3IiBkPSJNNTQ0LjQ2LDIwNy4zMSBDNTM0LjcxLDIzMS41NCA1MjYuMzUwNSwyNTIuMzA0IDUxNi43OTA1LDI3Ni4wNTQgIiBmaWxsPSJub25lIiBpZD0iRGVjaXNpb25Db2RlLXRvLUNoYW5nZUxvZyIgc3R5bGU9InN0cm9rZTojMTgxODE4O3N0cm9rZS13aWR0aDoxLjA7c3Ryb2tlLWRhc2hhcnJheTo3LjAsNy4wOyIvPjxwb2x5Z29uIGZpbGw9IiMxODE4MTgiIHBvaW50cz0iNTE0LjU1LDI4MS42Miw1MjEuNjIxNCwyNzQuNzY0Niw1MTYuNDE3MSwyNzYuOTgxNyw1MTQuMiwyNzEuNzc3NCw1MTQuNTUsMjgxLjYyIiBzdHlsZT0ic3Ryb2tlOiMxODE4MTg7c3Ryb2tlLXdpZHRoOjEuMDsiLz48dGV4dCBmaWxsPSIjMDAwMDAwIiBmb250LWZhbWlseT0ic2Fucy1zZXJpZiIgZm9udC1zaXplPSIxMyIgbGVuZ3RoQWRqdXN0PSJzcGFjaW5nIiB0ZXh0TGVuZ3RoPSIyOCIgeD0iNTMyIiB5PSIyNTAuMjg5MSI+dXNlczwvdGV4dD48L2c+PCEtLWxpbmsgRGVjaXNpb25Db2RlIHRvIEN1YmFuU2FuZHdpY2gtLT48ZyBpZD0ibGlua19EZWNpc2lvbkNvZGVfQ3ViYW5TYW5kd2ljaCI+PHBhdGggY29kZUxpbmU9IjM4IiBkPSJNNjUzLjI4LDIwNy4zMSBDNjkwLjgsMjQ4LjgzIDcyOS44Njc0LDI5Mi4wNTgyIDc1Ny4yMzc0LDMyMi4zNDgyICIgZmlsbD0ibm9uZSIgaWQ9IkRlY2lzaW9uQ29kZS10by1DdWJhblNhbmR3aWNoIiBzdHlsZT0ic3Ryb2tlOiMxODE4MTg7c3Ryb2tlLXdpZHRoOjEuMDtzdHJva2UtZGFzaGFycmF5OjcuMCw3LjA7Ii8+PHBvbHlnb24gZmlsbD0iIzE4MTgxOCIgcG9pbnRzPSI3NjEuMjYsMzI2LjgsNzU4LjE5MzksMzE3LjQ0MDYsNzU3LjkwNzgsMzIzLjA5MDIsNzUyLjI1ODIsMzIyLjgwNDEsNzYxLjI2LDMyNi44IiBzdHlsZT0ic3Ryb2tlOiMxODE4MTg7c3Ryb2tlLXdpZHRoOjEuMDsiLz48dGV4dCBmaWxsPSIjMDAwMDAwIiBmb250LWZhbWlseT0ic2Fucy1zZXJpZiIgZm9udC1zaXplPSIxMyIgbGVuZ3RoQWRqdXN0PSJzcGFjaW5nIiB0ZXh0TGVuZ3RoPSIyOCIgeD0iNjkwIiB5PSIyNTAuMjg5MSI+dXNlczwvdGV4dD48L2c+PCEtLWxpbmsgRGVjaXNpb25Db2RlIHRvIENoZWNrT3BlbkRheS0tPjxnIGlkPSJsaW5rX0RlY2lzaW9uQ29kZV9DaGVja09wZW5EYXkiPjxwYXRoIGNvZGVMaW5lPSIzOSIgZD0iTTcxNC42MSwxNzYuODYgQzc4Ni43MiwyMDUuOSA4NzYuMTYsMjQzLjcyIDk1NCwyODIgQzk4MS43NiwyOTUuNjUgMTAwNi42MTA5LDMwOS40ODA3IDEwMzEuMTEwOSwzMjMuODEwNyAiIGZpbGw9Im5vbmUiIGlkPSJEZWNpc2lvbkNvZGUtdG8tQ2hlY2tPcGVuRGF5IiBzdHlsZT0ic3Ryb2tlOiMxODE4MTg7c3Ryb2tlLXdpZHRoOjEuMDtzdHJva2UtZGFzaGFycmF5OjcuMCw3LjA7Ii8+PHBvbHlnb24gZmlsbD0iIzE4MTgxOCIgcG9pbnRzPSIxMDM2LjI5LDMyNi44NCwxMDMwLjU0MDgsMzE4Ljg0MzMsMTAzMS45NzQsMzI0LjMxNTYsMTAyNi41MDE4LDMyNS43NDg5LDEwMzYuMjksMzI2Ljg0IiBzdHlsZT0ic3Ryb2tlOiMxODE4MTg7c3Ryb2tlLXdpZHRoOjEuMDsiLz48dGV4dCBmaWxsPSIjMDAwMDAwIiBmb250LWZhbWlseT0ic2Fucy1zZXJpZiIgZm9udC1zaXplPSIxMyIgbGVuZ3RoQWRqdXN0PSJzcGFjaW5nIiB0ZXh0TGVuZ3RoPSIyOCIgeD0iODg0IiB5PSIyNTAuMjg5MSI+dXNlczwvdGV4dD48L2c+PCEtLVNSQz1bYlBGRFFlRDA1NFJ0VU9mUE1XZVhZekE1MTFTclgxUFlLcDBsUzNqcGdxRlk3TjU2S29idnptdXNRUG5nckN4MlhULVBtX3RIN0ZXVTRjSVByRVJYU1I1V054Q1BpdVNWRzZrc0dZd3JMMUdnV0pQWHZ0RkZZZjlZWmhHYnozSWRtY1NuMW84aXhkbk1BSWN3dkV3ZWZmOWZXTEVpNFNYX3JoMU1QSjRMYlRMS1FvbV9mdjlPdElQRnhSYjdJRU1CbVNvUC1HU1FkZ3dMNGFfckFzSmVhTnJPYklhYTlUUHFrVEVyWEliR1dYa0xFM2hVbERLLXN6WkxCdHlxR0lsTlBNOVpXbzhTMEs1U2EwVzRVanRzMUh3NldUbWdwTS1MRk8xakF0eVJXbmZCeDVSemJ0SmRLaHUzbkszWUE3ZGdwMlAxcXVJeEVjX2dWR1FUbmNZTXBlc1dSekI4enppU1FHTXI4bkhHRHpkZV9mcV9SWnVGaGYtMnBxZ0RrWC13UmRZR1NsZVR6aE53RThFZFJtMDBdLS0+PC9nPjwvc3ZnPg==;" vertex="1" parent="1">
            <mxGeometry x="-840" y="720" width="1283.84" height="480" as="geometry" />
          </mxCell>
        </UserObject>
        <UserObject label="" plantUmlData="{&#xa;  &quot;data&quot;: &quot;@startuml\n\npackage \&quot;mist4600\&quot; {\n    class ChangeLog {\n        - numTempChangesMade: int\n        - changes: ArrayList&lt;String&gt;\n        - suggestedChanges: ArrayList&lt;String&gt;\n        + printChangeLog(): void\n        + printSuggestedChangeLog(): void\n        + addChangesMade(): void\n        + delChangesMade(): void\n        + printNumTempChangesMade(): void\n        + tempPrintChangeLog(): void\n    }\n\n    ChangeLog : + \&quot;static int numTempChangesMade\&quot;\n    ChangeLog : + \&quot;static ArrayList&lt;String&gt; changes\&quot;\n    ChangeLog : + \&quot;static ArrayList&lt;String&gt; suggestedChanges\&quot;\n    ChangeLog : + printChangeLog()\n    ChangeLog : + printSuggestedChangeLog()\n    ChangeLog : + addChangesMade()\n    ChangeLog : + delChangesMade()\n    ChangeLog : + printNumTempChangesMade()\n    ChangeLog : + tempPrintChangeLog()\n}\n\n@enduml\n&quot;,&#xa;  &quot;format&quot;: &quot;svg&quot;&#xa;}" id="jdkaQaLkujzSPGSTUR3C-1">
          <mxCell style="shape=image;noLabel=1;verticalAlign=top;aspect=fixed;imageAspect=0;image=data:image/svg+xml,PD94bWwgdmVyc2lvbj0iMS4wIiBlbmNvZGluZz0idXMtYXNjaWkiIHN0YW5kYWxvbmU9Im5vIj8+PHN2ZyB4bWxucz0iaHR0cDovL3d3dy53My5vcmcvMjAwMC9zdmciIHhtbG5zOnhsaW5rPSJodHRwOi8vd3d3LnczLm9yZy8xOTk5L3hsaW5rIiBjb250ZW50U3R5bGVUeXBlPSJ0ZXh0L2NzcyIgaGVpZ2h0PSIzODBweCIgcHJlc2VydmVBc3BlY3RSYXRpbz0ibm9uZSIgc3R5bGU9IndpZHRoOjM3M3B4O2hlaWdodDozODBweDtiYWNrZ3JvdW5kOiNGRkZGRkY7IiB2ZXJzaW9uPSIxLjEiIHZpZXdCb3g9IjAgMCAzNzMgMzgwIiB3aWR0aD0iMzczcHgiIHpvb21BbmRQYW49Im1hZ25pZnkiPjxkZWZzLz48Zz48IS0tY2x1c3RlciBtaXN0NDYwMC0tPjxnIGlkPSJjbHVzdGVyX21pc3Q0NjAwIj48cGF0aCBkPSJNOC41LDYgTDY2LjUsNiBBMy43NSwzLjc1IDAgMCAxIDY5LDguNSBMNzYsMjYuOTg0NCBMMzYzLjUsMjYuOTg0NCBBMi41LDIuNSAwIDAgMSAzNjYsMjkuNDg0NCBMMzY2LDM3MC41IEEyLjUsMi41IDAgMCAxIDM2My41LDM3MyBMOC41LDM3MyBBMi41LDIuNSAwIDAgMSA2LDM3MC41IEw2LDguNSBBMi41LDIuNSAwIDAgMSA4LjUsNiAiIGZpbGw9Im5vbmUiIHN0eWxlPSJzdHJva2U6IzAwMDAwMDtzdHJva2Utd2lkdGg6MS41OyIvPjxsaW5lIHN0eWxlPSJzdHJva2U6IzAwMDAwMDtzdHJva2Utd2lkdGg6MS41OyIgeDE9IjYiIHgyPSI3NiIgeTE9IjI2Ljk4NDQiIHkyPSIyNi45ODQ0Ii8+PHRleHQgZmlsbD0iIzAwMDAwMCIgZm9udC1mYW1pbHk9InNhbnMtc2VyaWYiIGZvbnQtc2l6ZT0iMTQiIGZvbnQtd2VpZ2h0PSJib2xkIiBsZW5ndGhBZGp1c3Q9InNwYWNpbmciIHRleHRMZW5ndGg9IjU3IiB4PSIxMCIgeT0iMjEuMjM0NCI+bWlzdDQ2MDA8L3RleHQ+PC9nPjwhLS1jbGFzcyBDaGFuZ2VMb2ctLT48ZyBpZD0iZWxlbV9DaGFuZ2VMb2ciPjxyZWN0IGNvZGVMaW5lPSIyIiBmaWxsPSIjRjFGMUYxIiBoZWlnaHQ9IjMxNy43MTg4IiBpZD0iQ2hhbmdlTG9nIiByeD0iMi41IiByeT0iMi41IiBzdHlsZT0ic3Ryb2tlOiMxODE4MTg7c3Ryb2tlLXdpZHRoOjAuNTsiIHdpZHRoPSIzMjkiIHg9IjIxLjUiIHk9IjM5Ii8+PGVsbGlwc2UgY3g9IjE1MC4yNSIgY3k9IjU1IiBmaWxsPSIjQUREMUIyIiByeD0iMTEiIHJ5PSIxMSIgc3R5bGU9InN0cm9rZTojMTgxODE4O3N0cm9rZS13aWR0aDoxLjA7Ii8+PHBhdGggZD0iTTE0Ny44NzUsNTkuMjUgTDE0Ny44NzUsNjEgTDE1Mi44MTI1LDYxIEwxNTIuODEyNSw1OS4yNSBMMTQ3Ljg3NSw1OS4yNSBaIE0xNDguNTYyNSw1OS45Mzc1IFExNDguNTYyNSw1OS45Mzc1IDE0OC41NjI1LDUwLjc1IEwxNDYuODEyNSw1MC43NSBRMTQ2LjgxMjUsNTAuNzUgMTQ2LjgxMjUsNTkuOTM3NSBMMTQ4LjU2MjUsNTkuOTM3NSBaIE0xNTIuMTI1LDU5LjkzNzUgTDE1My44NzUsNTkuOTM3NSBRMTUzLjg3NSw1OS45Mzc1IDE1My44NzUsNTcuMTI1IEwxNTIuMTI1LDU3LjEyNSBRMTUyLjEyNSw1Ny4xMjUgMTUyLjEyNSw1OS45Mzc1IFogTTE1Mi4xMjUsNTAuNzUgUTE1Mi4xMjUsNTAuNzUgMTUyLjEyNSw1My41NjI1IEwxNTMuODc1LDUzLjU2MjUgUTE1My44NzUsNTMuNTYyNSAxNTMuODc1LDUwLjc1IEwxNTIuMTI1LDUwLjc1IFogTTE0Ny44NzUsNTEuNDM3NSBMMTUyLjgxMjUsNTEuNDM3NSBMMTUyLjgxMjUsNDkuNjg3NSBMMTQ3Ljg3NSw0OS42ODc1IEwxNDcuODc1LDUxLjQzNzUgWiAiIGZpbGw9IiMwMDAwMDAiLz48dGV4dCBmaWxsPSIjMDAwMDAwIiBmb250LWZhbWlseT0ic2Fucy1zZXJpZiIgZm9udC1zaXplPSIxNCIgbGVuZ3RoQWRqdXN0PSJzcGFjaW5nIiB0ZXh0TGVuZ3RoPSI2MyIgeD0iMTcwLjc1IiB5PSI2MC43NDIyIj5DaGFuZ2VMb2c8L3RleHQ+PGxpbmUgc3R5bGU9InN0cm9rZTojMTgxODE4O3N0cm9rZS13aWR0aDowLjU7IiB4MT0iMjIuNSIgeDI9IjM0OS41IiB5MT0iNzEiIHkyPSI3MSIvPjxyZWN0IGZpbGw9Im5vbmUiIGhlaWdodD0iNiIgc3R5bGU9InN0cm9rZTojQzgyOTMwO3N0cm9rZS13aWR0aDoxLjA7IiB3aWR0aD0iNiIgeD0iMjkuNSIgeT0iODAuOTkyMiIvPjx0ZXh0IGZpbGw9IiMwMDAwMDAiIGZvbnQtZmFtaWx5PSJzYW5zLXNlcmlmIiBmb250LXNpemU9IjE0IiBsZW5ndGhBZGp1c3Q9InNwYWNpbmciIHRleHRMZW5ndGg9IjE2MyIgeD0iNDEuNSIgeT0iODguMjM0NCI+bnVtVGVtcENoYW5nZXNNYWRlOiBpbnQ8L3RleHQ+PHJlY3QgZmlsbD0ibm9uZSIgaGVpZ2h0PSI2IiBzdHlsZT0ic3Ryb2tlOiNDODI5MzA7c3Ryb2tlLXdpZHRoOjEuMDsiIHdpZHRoPSI2IiB4PSIyOS41IiB5PSI5NS45NzY2Ii8+PHRleHQgZmlsbD0iIzAwMDAwMCIgZm9udC1mYW1pbHk9InNhbnMtc2VyaWYiIGZvbnQtc2l6ZT0iMTQiIGxlbmd0aEFkanVzdD0ic3BhY2luZyIgdGV4dExlbmd0aD0iMTgyIiB4PSI0MS41IiB5PSIxMDMuMjE4OCI+Y2hhbmdlczogQXJyYXlMaXN0Jmx0O1N0cmluZyZndDs8L3RleHQ+PHJlY3QgZmlsbD0ibm9uZSIgaGVpZ2h0PSI2IiBzdHlsZT0ic3Ryb2tlOiNDODI5MzA7c3Ryb2tlLXdpZHRoOjEuMDsiIHdpZHRoPSI2IiB4PSIyOS41IiB5PSIxMTAuOTYwOSIvPjx0ZXh0IGZpbGw9IiMwMDAwMDAiIGZvbnQtZmFtaWx5PSJzYW5zLXNlcmlmIiBmb250LXNpemU9IjE0IiBsZW5ndGhBZGp1c3Q9InNwYWNpbmciIHRleHRMZW5ndGg9IjI0NSIgeD0iNDEuNSIgeT0iMTE4LjIwMzEiPnN1Z2dlc3RlZENoYW5nZXM6IEFycmF5TGlzdCZsdDtTdHJpbmcmZ3Q7PC90ZXh0PjxlbGxpcHNlIGN4PSIzMi41IiBjeT0iMTI4Ljk0NTMiIGZpbGw9Im5vbmUiIHJ4PSIzIiByeT0iMyIgc3R5bGU9InN0cm9rZTojMDM4MDQ4O3N0cm9rZS13aWR0aDoxLjA7Ii8+PHRleHQgZmlsbD0iIzAwMDAwMCIgZm9udC1mYW1pbHk9InNhbnMtc2VyaWYiIGZvbnQtc2l6ZT0iMTQiIGxlbmd0aEFkanVzdD0ic3BhY2luZyIgdGV4dExlbmd0aD0iMjIxIiB4PSI0MS41IiB5PSIxMzMuMTg3NSI+InN0YXRpYyBpbnQgbnVtVGVtcENoYW5nZXNNYWRlIjwvdGV4dD48ZWxsaXBzZSBjeD0iMzIuNSIgY3k9IjE0My45Mjk3IiBmaWxsPSJub25lIiByeD0iMyIgcnk9IjMiIHN0eWxlPSJzdHJva2U6IzAzODA0ODtzdHJva2Utd2lkdGg6MS4wOyIvPjx0ZXh0IGZpbGw9IiMwMDAwMDAiIGZvbnQtZmFtaWx5PSJzYW5zLXNlcmlmIiBmb250LXNpemU9IjE0IiBsZW5ndGhBZGp1c3Q9InNwYWNpbmciIHRleHRMZW5ndGg9IjI0MCIgeD0iNDEuNSIgeT0iMTQ4LjE3MTkiPiJzdGF0aWMgQXJyYXlMaXN0Jmx0O1N0cmluZyZndDsgY2hhbmdlcyI8L3RleHQ+PGVsbGlwc2UgY3g9IjMyLjUiIGN5PSIxNTguOTE0MSIgZmlsbD0ibm9uZSIgcng9IjMiIHJ5PSIzIiBzdHlsZT0ic3Ryb2tlOiMwMzgwNDg7c3Ryb2tlLXdpZHRoOjEuMDsiLz48dGV4dCBmaWxsPSIjMDAwMDAwIiBmb250LWZhbWlseT0ic2Fucy1zZXJpZiIgZm9udC1zaXplPSIxNCIgbGVuZ3RoQWRqdXN0PSJzcGFjaW5nIiB0ZXh0TGVuZ3RoPSIzMDMiIHg9IjQxLjUiIHk9IjE2My4xNTYzIj4ic3RhdGljIEFycmF5TGlzdCZsdDtTdHJpbmcmZ3Q7IHN1Z2dlc3RlZENoYW5nZXMiPC90ZXh0PjxsaW5lIHN0eWxlPSJzdHJva2U6IzE4MTgxODtzdHJva2Utd2lkdGg6MC41OyIgeDE9IjIyLjUiIHgyPSIzNDkuNSIgeTE9IjE2OC45MDYzIiB5Mj0iMTY4LjkwNjMiLz48ZWxsaXBzZSBjeD0iMzIuNSIgY3k9IjE4MS44OTg0IiBmaWxsPSIjODRCRTg0IiByeD0iMyIgcnk9IjMiIHN0eWxlPSJzdHJva2U6IzAzODA0ODtzdHJva2Utd2lkdGg6MS4wOyIvPjx0ZXh0IGZpbGw9IiMwMDAwMDAiIGZvbnQtZmFtaWx5PSJzYW5zLXNlcmlmIiBmb250LXNpemU9IjE0IiBsZW5ndGhBZGp1c3Q9InNwYWNpbmciIHRleHRMZW5ndGg9IjE1NiIgeD0iNDEuNSIgeT0iMTg2LjE0MDYiPnByaW50Q2hhbmdlTG9nKCk6IHZvaWQ8L3RleHQ+PGVsbGlwc2UgY3g9IjMyLjUiIGN5PSIxOTYuODgyOCIgZmlsbD0iIzg0QkU4NCIgcng9IjMiIHJ5PSIzIiBzdHlsZT0ic3Ryb2tlOiMwMzgwNDg7c3Ryb2tlLXdpZHRoOjEuMDsiLz48dGV4dCBmaWxsPSIjMDAwMDAwIiBmb250LWZhbWlseT0ic2Fucy1zZXJpZiIgZm9udC1zaXplPSIxNCIgbGVuZ3RoQWRqdXN0PSJzcGFjaW5nIiB0ZXh0TGVuZ3RoPSIyMTkiIHg9IjQxLjUiIHk9IjIwMS4xMjUiPnByaW50U3VnZ2VzdGVkQ2hhbmdlTG9nKCk6IHZvaWQ8L3RleHQ+PGVsbGlwc2UgY3g9IjMyLjUiIGN5PSIyMTEuODY3MiIgZmlsbD0iIzg0QkU4NCIgcng9IjMiIHJ5PSIzIiBzdHlsZT0ic3Ryb2tlOiMwMzgwNDg7c3Ryb2tlLXdpZHRoOjEuMDsiLz48dGV4dCBmaWxsPSIjMDAwMDAwIiBmb250LWZhbWlseT0ic2Fucy1zZXJpZiIgZm9udC1zaXplPSIxNCIgbGVuZ3RoQWRqdXN0PSJzcGFjaW5nIiB0ZXh0TGVuZ3RoPSIxNTYiIHg9IjQxLjUiIHk9IjIxNi4xMDk0Ij5hZGRDaGFuZ2VzTWFkZSgpOiB2b2lkPC90ZXh0PjxlbGxpcHNlIGN4PSIzMi41IiBjeT0iMjI2Ljg1MTYiIGZpbGw9IiM4NEJFODQiIHJ4PSIzIiByeT0iMyIgc3R5bGU9InN0cm9rZTojMDM4MDQ4O3N0cm9rZS13aWR0aDoxLjA7Ii8+PHRleHQgZmlsbD0iIzAwMDAwMCIgZm9udC1mYW1pbHk9InNhbnMtc2VyaWYiIGZvbnQtc2l6ZT0iMTQiIGxlbmd0aEFkanVzdD0ic3BhY2luZyIgdGV4dExlbmd0aD0iMTU2IiB4PSI0MS41IiB5PSIyMzEuMDkzOCI+ZGVsQ2hhbmdlc01hZGUoKTogdm9pZDwvdGV4dD48ZWxsaXBzZSBjeD0iMzIuNSIgY3k9IjI0MS44MzU5IiBmaWxsPSIjODRCRTg0IiByeD0iMyIgcnk9IjMiIHN0eWxlPSJzdHJva2U6IzAzODA0ODtzdHJva2Utd2lkdGg6MS4wOyIvPjx0ZXh0IGZpbGw9IiMwMDAwMDAiIGZvbnQtZmFtaWx5PSJzYW5zLXNlcmlmIiBmb250LXNpemU9IjE0IiBsZW5ndGhBZGp1c3Q9InNwYWNpbmciIHRleHRMZW5ndGg9IjIyMSIgeD0iNDEuNSIgeT0iMjQ2LjA3ODEiPnByaW50TnVtVGVtcENoYW5nZXNNYWRlKCk6IHZvaWQ8L3RleHQ+PGVsbGlwc2UgY3g9IjMyLjUiIGN5PSIyNTYuODIwMyIgZmlsbD0iIzg0QkU4NCIgcng9IjMiIHJ5PSIzIiBzdHlsZT0ic3Ryb2tlOiMwMzgwNDg7c3Ryb2tlLXdpZHRoOjEuMDsiLz48dGV4dCBmaWxsPSIjMDAwMDAwIiBmb250LWZhbWlseT0ic2Fucy1zZXJpZiIgZm9udC1zaXplPSIxNCIgbGVuZ3RoQWRqdXN0PSJzcGFjaW5nIiB0ZXh0TGVuZ3RoPSIxODUiIHg9IjQxLjUiIHk9IjI2MS4wNjI1Ij50ZW1wUHJpbnRDaGFuZ2VMb2coKTogdm9pZDwvdGV4dD48ZWxsaXBzZSBjeD0iMzIuNSIgY3k9IjI3MS44MDQ3IiBmaWxsPSIjODRCRTg0IiByeD0iMyIgcnk9IjMiIHN0eWxlPSJzdHJva2U6IzAzODA0ODtzdHJva2Utd2lkdGg6MS4wOyIvPjx0ZXh0IGZpbGw9IiMwMDAwMDAiIGZvbnQtZmFtaWx5PSJzYW5zLXNlcmlmIiBmb250LXNpemU9IjE0IiBsZW5ndGhBZGp1c3Q9InNwYWNpbmciIHRleHRMZW5ndGg9IjExNCIgeD0iNDEuNSIgeT0iMjc2LjA0NjkiPnByaW50Q2hhbmdlTG9nKCk8L3RleHQ+PGVsbGlwc2UgY3g9IjMyLjUiIGN5PSIyODYuNzg5MSIgZmlsbD0iIzg0QkU4NCIgcng9IjMiIHJ5PSIzIiBzdHlsZT0ic3Ryb2tlOiMwMzgwNDg7c3Ryb2tlLXdpZHRoOjEuMDsiLz48dGV4dCBmaWxsPSIjMDAwMDAwIiBmb250LWZhbWlseT0ic2Fucy1zZXJpZiIgZm9udC1zaXplPSIxNCIgbGVuZ3RoQWRqdXN0PSJzcGFjaW5nIiB0ZXh0TGVuZ3RoPSIxNzciIHg9IjQxLjUiIHk9IjI5MS4wMzEzIj5wcmludFN1Z2dlc3RlZENoYW5nZUxvZygpPC90ZXh0PjxlbGxpcHNlIGN4PSIzMi41IiBjeT0iMzAxLjc3MzQiIGZpbGw9IiM4NEJFODQiIHJ4PSIzIiByeT0iMyIgc3R5bGU9InN0cm9rZTojMDM4MDQ4O3N0cm9rZS13aWR0aDoxLjA7Ii8+PHRleHQgZmlsbD0iIzAwMDAwMCIgZm9udC1mYW1pbHk9InNhbnMtc2VyaWYiIGZvbnQtc2l6ZT0iMTQiIGxlbmd0aEFkanVzdD0ic3BhY2luZyIgdGV4dExlbmd0aD0iMTE0IiB4PSI0MS41IiB5PSIzMDYuMDE1NiI+YWRkQ2hhbmdlc01hZGUoKTwvdGV4dD48ZWxsaXBzZSBjeD0iMzIuNSIgY3k9IjMxNi43NTc4IiBmaWxsPSIjODRCRTg0IiByeD0iMyIgcnk9IjMiIHN0eWxlPSJzdHJva2U6IzAzODA0ODtzdHJva2Utd2lkdGg6MS4wOyIvPjx0ZXh0IGZpbGw9IiMwMDAwMDAiIGZvbnQtZmFtaWx5PSJzYW5zLXNlcmlmIiBmb250LXNpemU9IjE0IiBsZW5ndGhBZGp1c3Q9InNwYWNpbmciIHRleHRMZW5ndGg9IjExNCIgeD0iNDEuNSIgeT0iMzIxIj5kZWxDaGFuZ2VzTWFkZSgpPC90ZXh0PjxlbGxpcHNlIGN4PSIzMi41IiBjeT0iMzMxLjc0MjIiIGZpbGw9IiM4NEJFODQiIHJ4PSIzIiByeT0iMyIgc3R5bGU9InN0cm9rZTojMDM4MDQ4O3N0cm9rZS13aWR0aDoxLjA7Ii8+PHRleHQgZmlsbD0iIzAwMDAwMCIgZm9udC1mYW1pbHk9InNhbnMtc2VyaWYiIGZvbnQtc2l6ZT0iMTQiIGxlbmd0aEFkanVzdD0ic3BhY2luZyIgdGV4dExlbmd0aD0iMTc5IiB4PSI0MS41IiB5PSIzMzUuOTg0NCI+cHJpbnROdW1UZW1wQ2hhbmdlc01hZGUoKTwvdGV4dD48ZWxsaXBzZSBjeD0iMzIuNSIgY3k9IjM0Ni43MjY2IiBmaWxsPSIjODRCRTg0IiByeD0iMyIgcnk9IjMiIHN0eWxlPSJzdHJva2U6IzAzODA0ODtzdHJva2Utd2lkdGg6MS4wOyIvPjx0ZXh0IGZpbGw9IiMwMDAwMDAiIGZvbnQtZmFtaWx5PSJzYW5zLXNlcmlmIiBmb250LXNpemU9IjE0IiBsZW5ndGhBZGp1c3Q9InNwYWNpbmciIHRleHRMZW5ndGg9IjE0MyIgeD0iNDEuNSIgeT0iMzUwLjk2ODgiPnRlbXBQcmludENoYW5nZUxvZygpPC90ZXh0PjwvZz48IS0tU1JDPVtiUDdCMmk4bTQ0TnRfT2dYQXFNNEJpSDU0NDZ3aElCSzdtWDlZQzYtUTU5MWZGemtzbGdld1JKWVIwQVBTc1U2VW1sQUJiR0F5NUVicE1lVDEzeFNGUjM1NGdlclg2VVFJSDdieWxkUnIxQW9BWnM5akVZUVVhLXY4QTBvcW9ET3JvQW1BcWp3WS1waUpNbkFiU2JqM3pBTGo4bUhGRm5EQncybTctUHpwc25FdTllaHhXQm56cW9TZjlwdFJhUzBCZjlmZURycjZEWTBhQ09Jbl83SlF3enpGWnVKZ182cmVLUW5uYkY0UXR6MkNKM21iU0hfOFpTUEpFdGNDT1BXWUkyaWNtYzJrQWNDUlNIb0dMV2k2UXotMDAwMF0tLT48L2c+PC9zdmc+;" vertex="1" parent="1">
            <mxGeometry x="460" y="736.65" width="445" height="453.35" as="geometry" />
          </mxCell>
        </UserObject>
        <UserObject label="" plantUmlData="{&#xa;  &quot;data&quot;: &quot;@startuml\n\npackage \&quot;mist4600\&quot; {\n    class CheckOpenDay {\n        - openDays: String[]\n        + isOpenDay(day: String): boolean\n        + dayCheck(scnr: Scanner): void\n    }\n\n    CheckOpenDay : + \&quot;private static final String[] openDays = {\\\&quot;Monday\\\&quot;, \\\&quot;Tuesday\\\&quot;, \\\&quot;Wednesday\\\&quot;, \\\&quot;Thursday\\\&quot;, \\\&quot;Friday\\\&quot;}\&quot;\n    CheckOpenDay : + isOpenDay(day: String)\n    CheckOpenDay : + dayCheck(scnr: Scanner)\n}\n\n@enduml\n&quot;,&#xa;  &quot;format&quot;: &quot;svg&quot;&#xa;}" id="PPD2t3vnSSwA2altPbUX-1">
          <mxCell style="shape=image;noLabel=1;verticalAlign=top;aspect=fixed;imageAspect=0;image=data:image/svg+xml,PD94bWwgdmVyc2lvbj0iMS4wIiBlbmNvZGluZz0idXMtYXNjaWkiIHN0YW5kYWxvbmU9Im5vIj8+PHN2ZyB4bWxucz0iaHR0cDovL3d3dy53My5vcmcvMjAwMC9zdmciIHhtbG5zOnhsaW5rPSJodHRwOi8vd3d3LnczLm9yZy8xOTk5L3hsaW5rIiBjb250ZW50U3R5bGVUeXBlPSJ0ZXh0L2NzcyIgaGVpZ2h0PSIyMDBweCIgcHJlc2VydmVBc3BlY3RSYXRpbz0ibm9uZSIgc3R5bGU9IndpZHRoOjg0N3B4O2hlaWdodDoyMDBweDtiYWNrZ3JvdW5kOiNGRkZGRkY7IiB2ZXJzaW9uPSIxLjEiIHZpZXdCb3g9IjAgMCA4NDcgMjAwIiB3aWR0aD0iODQ3cHgiIHpvb21BbmRQYW49Im1hZ25pZnkiPjxkZWZzLz48Zz48IS0tY2x1c3RlciBtaXN0NDYwMC0tPjxnIGlkPSJjbHVzdGVyX21pc3Q0NjAwIj48cGF0aCBkPSJNOC41LDYgTDY2LjUsNiBBMy43NSwzLjc1IDAgMCAxIDY5LDguNSBMNzYsMjYuOTg0NCBMODM3LjUsMjYuOTg0NCBBMi41LDIuNSAwIDAgMSA4NDAsMjkuNDg0NCBMODQwLDE5MC41IEEyLjUsMi41IDAgMCAxIDgzNy41LDE5MyBMOC41LDE5MyBBMi41LDIuNSAwIDAgMSA2LDE5MC41IEw2LDguNSBBMi41LDIuNSAwIDAgMSA4LjUsNiAiIGZpbGw9Im5vbmUiIHN0eWxlPSJzdHJva2U6IzAwMDAwMDtzdHJva2Utd2lkdGg6MS41OyIvPjxsaW5lIHN0eWxlPSJzdHJva2U6IzAwMDAwMDtzdHJva2Utd2lkdGg6MS41OyIgeDE9IjYiIHgyPSI3NiIgeTE9IjI2Ljk4NDQiIHkyPSIyNi45ODQ0Ii8+PHRleHQgZmlsbD0iIzAwMDAwMCIgZm9udC1mYW1pbHk9InNhbnMtc2VyaWYiIGZvbnQtc2l6ZT0iMTQiIGZvbnQtd2VpZ2h0PSJib2xkIiBsZW5ndGhBZGp1c3Q9InNwYWNpbmciIHRleHRMZW5ndGg9IjU3IiB4PSIxMCIgeT0iMjEuMjM0NCI+bWlzdDQ2MDA8L3RleHQ+PC9nPjwhLS1jbGFzcyBDaGVja09wZW5EYXktLT48ZyBpZD0iZWxlbV9DaGVja09wZW5EYXkiPjxyZWN0IGNvZGVMaW5lPSIyIiBmaWxsPSIjRjFGMUYxIiBoZWlnaHQ9IjEzNy45MDYzIiBpZD0iQ2hlY2tPcGVuRGF5IiByeD0iMi41IiByeT0iMi41IiBzdHlsZT0ic3Ryb2tlOiMxODE4MTg7c3Ryb2tlLXdpZHRoOjAuNTsiIHdpZHRoPSI4MDMiIHg9IjIxLjUiIHk9IjM5Ii8+PGVsbGlwc2UgY3g9IjM3Ni43NSIgY3k9IjU1IiBmaWxsPSIjQUREMUIyIiByeD0iMTEiIHJ5PSIxMSIgc3R5bGU9InN0cm9rZTojMTgxODE4O3N0cm9rZS13aWR0aDoxLjA7Ii8+PHBhdGggZD0iTTM3NC4zNzUsNTkuMjUgTDM3NC4zNzUsNjEgTDM3OS4zMTI1LDYxIEwzNzkuMzEyNSw1OS4yNSBMMzc0LjM3NSw1OS4yNSBaIE0zNzUuMDYyNSw1OS45Mzc1IFEzNzUuMDYyNSw1OS45Mzc1IDM3NS4wNjI1LDUwLjc1IEwzNzMuMzEyNSw1MC43NSBRMzczLjMxMjUsNTAuNzUgMzczLjMxMjUsNTkuOTM3NSBMMzc1LjA2MjUsNTkuOTM3NSBaIE0zNzguNjI1LDU5LjkzNzUgTDM4MC4zNzUsNTkuOTM3NSBRMzgwLjM3NSw1OS45Mzc1IDM4MC4zNzUsNTcuMTI1IEwzNzguNjI1LDU3LjEyNSBRMzc4LjYyNSw1Ny4xMjUgMzc4LjYyNSw1OS45Mzc1IFogTTM3OC42MjUsNTAuNzUgUTM3OC42MjUsNTAuNzUgMzc4LjYyNSw1My41NjI1IEwzODAuMzc1LDUzLjU2MjUgUTM4MC4zNzUsNTMuNTYyNSAzODAuMzc1LDUwLjc1IEwzNzguNjI1LDUwLjc1IFogTTM3NC4zNzUsNTEuNDM3NSBMMzc5LjMxMjUsNTEuNDM3NSBMMzc5LjMxMjUsNDkuNjg3NSBMMzc0LjM3NSw0OS42ODc1IEwzNzQuMzc1LDUxLjQzNzUgWiAiIGZpbGw9IiMwMDAwMDAiLz48dGV4dCBmaWxsPSIjMDAwMDAwIiBmb250LWZhbWlseT0ic2Fucy1zZXJpZiIgZm9udC1zaXplPSIxNCIgbGVuZ3RoQWRqdXN0PSJzcGFjaW5nIiB0ZXh0TGVuZ3RoPSI4NCIgeD0iMzk3LjI1IiB5PSI2MC43NDIyIj5DaGVja09wZW5EYXk8L3RleHQ+PGxpbmUgc3R5bGU9InN0cm9rZTojMTgxODE4O3N0cm9rZS13aWR0aDowLjU7IiB4MT0iMjIuNSIgeDI9IjgyMy41IiB5MT0iNzEiIHkyPSI3MSIvPjxyZWN0IGZpbGw9Im5vbmUiIGhlaWdodD0iNiIgc3R5bGU9InN0cm9rZTojQzgyOTMwO3N0cm9rZS13aWR0aDoxLjA7IiB3aWR0aD0iNiIgeD0iMjkuNSIgeT0iODAuOTkyMiIvPjx0ZXh0IGZpbGw9IiMwMDAwMDAiIGZvbnQtZmFtaWx5PSJzYW5zLXNlcmlmIiBmb250LXNpemU9IjE0IiBsZW5ndGhBZGp1c3Q9InNwYWNpbmciIHRleHRMZW5ndGg9IjEyNiIgeD0iNDEuNSIgeT0iODguMjM0NCI+b3BlbkRheXM6IFN0cmluZ1tdPC90ZXh0PjxlbGxpcHNlIGN4PSIzMi41IiBjeT0iOTguOTc2NiIgZmlsbD0ibm9uZSIgcng9IjMiIHJ5PSIzIiBzdHlsZT0ic3Ryb2tlOiMwMzgwNDg7c3Ryb2tlLXdpZHRoOjEuMDsiLz48dGV4dCBmaWxsPSIjMDAwMDAwIiBmb250LWZhbWlseT0ic2Fucy1zZXJpZiIgZm9udC1zaXplPSIxNCIgbGVuZ3RoQWRqdXN0PSJzcGFjaW5nIiB0ZXh0TGVuZ3RoPSI3NzciIHg9IjQxLjUiIHk9IjEwMy4yMTg4Ij4icHJpdmF0ZSBzdGF0aWMgZmluYWwgU3RyaW5nW10gb3BlbkRheXMgPSB7XCJNb25kYXlcIiwgXCJUdWVzZGF5XCIsIFwiV2VkbmVzZGF5XCIsIFwiVGh1cnNkYXlcIiwgXCJGcmlkYXlcIn0iPC90ZXh0PjxsaW5lIHN0eWxlPSJzdHJva2U6IzE4MTgxODtzdHJva2Utd2lkdGg6MC41OyIgeDE9IjIyLjUiIHgyPSI4MjMuNSIgeTE9IjEwOC45Njg4IiB5Mj0iMTA4Ljk2ODgiLz48ZWxsaXBzZSBjeD0iMzIuNSIgY3k9IjEyMS45NjA5IiBmaWxsPSIjODRCRTg0IiByeD0iMyIgcnk9IjMiIHN0eWxlPSJzdHJva2U6IzAzODA0ODtzdHJva2Utd2lkdGg6MS4wOyIvPjx0ZXh0IGZpbGw9IiMwMDAwMDAiIGZvbnQtZmFtaWx5PSJzYW5zLXNlcmlmIiBmb250LXNpemU9IjE0IiBsZW5ndGhBZGp1c3Q9InNwYWNpbmciIHRleHRMZW5ndGg9IjIxOSIgeD0iNDEuNSIgeT0iMTI2LjIwMzEiPmlzT3BlbkRheShkYXk6IFN0cmluZyk6IGJvb2xlYW48L3RleHQ+PGVsbGlwc2UgY3g9IjMyLjUiIGN5PSIxMzYuOTQ1MyIgZmlsbD0iIzg0QkU4NCIgcng9IjMiIHJ5PSIzIiBzdHlsZT0ic3Ryb2tlOiMwMzgwNDg7c3Ryb2tlLXdpZHRoOjEuMDsiLz48dGV4dCBmaWxsPSIjMDAwMDAwIiBmb250LWZhbWlseT0ic2Fucy1zZXJpZiIgZm9udC1zaXplPSIxNCIgbGVuZ3RoQWRqdXN0PSJzcGFjaW5nIiB0ZXh0TGVuZ3RoPSIyMDUiIHg9IjQxLjUiIHk9IjE0MS4xODc1Ij5kYXlDaGVjayhzY25yOiBTY2FubmVyKTogdm9pZDwvdGV4dD48ZWxsaXBzZSBjeD0iMzIuNSIgY3k9IjE1MS45Mjk3IiBmaWxsPSIjODRCRTg0IiByeD0iMyIgcnk9IjMiIHN0eWxlPSJzdHJva2U6IzAzODA0ODtzdHJva2Utd2lkdGg6MS4wOyIvPjx0ZXh0IGZpbGw9IiMwMDAwMDAiIGZvbnQtZmFtaWx5PSJzYW5zLXNlcmlmIiBmb250LXNpemU9IjE0IiBsZW5ndGhBZGp1c3Q9InNwYWNpbmciIHRleHRMZW5ndGg9IjE1NiIgeD0iNDEuNSIgeT0iMTU2LjE3MTkiPmlzT3BlbkRheShkYXk6IFN0cmluZyk8L3RleHQ+PGVsbGlwc2UgY3g9IjMyLjUiIGN5PSIxNjYuOTE0MSIgZmlsbD0iIzg0QkU4NCIgcng9IjMiIHJ5PSIzIiBzdHlsZT0ic3Ryb2tlOiMwMzgwNDg7c3Ryb2tlLXdpZHRoOjEuMDsiLz48dGV4dCBmaWxsPSIjMDAwMDAwIiBmb250LWZhbWlseT0ic2Fucy1zZXJpZiIgZm9udC1zaXplPSIxNCIgbGVuZ3RoQWRqdXN0PSJzcGFjaW5nIiB0ZXh0TGVuZ3RoPSIxNjMiIHg9IjQxLjUiIHk9IjE3MS4xNTYzIj5kYXlDaGVjayhzY25yOiBTY2FubmVyKTwvdGV4dD48L2c+PCEtLVNSQz1bVE95bjJ5OG00OE50X2VlWktxTTUzazlHUzVCU25DNjJXdEt1cXdZN3pMQUlMOTNJX3N3aWpJaEtNdjl0eHBsa05PN29XWVM1dWFoTUpRUEg5QTBBbTlWQ3FMZ09kdk15aDBsNTJ4b3RuaEY2ZTV5ejZ5RjY2VUJKUmotUEdvM1JaZUdQdGpfNDg4UTNyaGIyX1lBenR3bThoTUpaSU9kQ29kWnFmWWJoazNmZWRmeVdpUHlLWFE0UkVXTk1lSUM5SHNCQ2twMVRGZlgxYk9nTFBoeWY1SUQ4SEw4Z3N1Y2pvbFhCOWtWSVZESklLRkVsSE4tNF9aRnhzSi03MWxLM10tLT48L2c+PC9zdmc+;" vertex="1" parent="1">
            <mxGeometry x="690" y="370" width="847" height="200" as="geometry" />
          </mxCell>
        </UserObject>
      </root>
    </mxGraphModel>
  </diagram>
  <diagram id="bwQkVaXMVL3CNIiGXPs6" name="Page-2">
    <mxGraphModel dx="3112" dy="1469" grid="1" gridSize="10" guides="1" tooltips="1" connect="1" arrows="1" fold="1" page="1" pageScale="1" pageWidth="850" pageHeight="1100" math="0" shadow="0">
      <root>
        <mxCell id="0" />
        <mxCell id="1" parent="0" />
        <UserObject label="" plantUmlData="{&#xa;  &quot;data&quot;: &quot;@startuml\n\npackage \&quot;mist4600\&quot; {\n    class CheckOpenDay {\n        - openDays: String[]\n        + isOpenDay(day: String): boolean\n        + dayCheck(scnr: Scanner): void\n    }\n\n    CheckOpenDay : + \&quot;private static final String[] openDays = {\\\&quot;Monday\\\&quot;, \\\&quot;Tuesday\\\&quot;, \\\&quot;Wednesday\\\&quot;, \\\&quot;Thursday\\\&quot;, \\\&quot;Friday\\\&quot;}\&quot;\n    CheckOpenDay : + isOpenDay(day: String)\n    CheckOpenDay : + dayCheck(scnr: Scanner)\n}\n\n@enduml\n&quot;,&#xa;  &quot;format&quot;: &quot;svg&quot;&#xa;}" id="qgRuia4ycoHP86Sn3ILv-2">
          <mxCell style="shape=image;noLabel=1;verticalAlign=top;aspect=fixed;imageAspect=0;image=data:image/svg+xml,PD94bWwgdmVyc2lvbj0iMS4wIiBlbmNvZGluZz0idXMtYXNjaWkiIHN0YW5kYWxvbmU9Im5vIj8+PHN2ZyB4bWxucz0iaHR0cDovL3d3dy53My5vcmcvMjAwMC9zdmciIHhtbG5zOnhsaW5rPSJodHRwOi8vd3d3LnczLm9yZy8xOTk5L3hsaW5rIiBjb250ZW50U3R5bGVUeXBlPSJ0ZXh0L2NzcyIgaGVpZ2h0PSIyMDBweCIgcHJlc2VydmVBc3BlY3RSYXRpbz0ibm9uZSIgc3R5bGU9IndpZHRoOjg0N3B4O2hlaWdodDoyMDBweDtiYWNrZ3JvdW5kOiNGRkZGRkY7IiB2ZXJzaW9uPSIxLjEiIHZpZXdCb3g9IjAgMCA4NDcgMjAwIiB3aWR0aD0iODQ3cHgiIHpvb21BbmRQYW49Im1hZ25pZnkiPjxkZWZzLz48Zz48IS0tY2x1c3RlciBtaXN0NDYwMC0tPjxnIGlkPSJjbHVzdGVyX21pc3Q0NjAwIj48cGF0aCBkPSJNOC41LDYgTDY2LjUsNiBBMy43NSwzLjc1IDAgMCAxIDY5LDguNSBMNzYsMjYuOTg0NCBMODM3LjUsMjYuOTg0NCBBMi41LDIuNSAwIDAgMSA4NDAsMjkuNDg0NCBMODQwLDE5MC41IEEyLjUsMi41IDAgMCAxIDgzNy41LDE5MyBMOC41LDE5MyBBMi41LDIuNSAwIDAgMSA2LDE5MC41IEw2LDguNSBBMi41LDIuNSAwIDAgMSA4LjUsNiAiIGZpbGw9Im5vbmUiIHN0eWxlPSJzdHJva2U6IzAwMDAwMDtzdHJva2Utd2lkdGg6MS41OyIvPjxsaW5lIHN0eWxlPSJzdHJva2U6IzAwMDAwMDtzdHJva2Utd2lkdGg6MS41OyIgeDE9IjYiIHgyPSI3NiIgeTE9IjI2Ljk4NDQiIHkyPSIyNi45ODQ0Ii8+PHRleHQgZmlsbD0iIzAwMDAwMCIgZm9udC1mYW1pbHk9InNhbnMtc2VyaWYiIGZvbnQtc2l6ZT0iMTQiIGZvbnQtd2VpZ2h0PSJib2xkIiBsZW5ndGhBZGp1c3Q9InNwYWNpbmciIHRleHRMZW5ndGg9IjU3IiB4PSIxMCIgeT0iMjEuMjM0NCI+bWlzdDQ2MDA8L3RleHQ+PC9nPjwhLS1jbGFzcyBDaGVja09wZW5EYXktLT48ZyBpZD0iZWxlbV9DaGVja09wZW5EYXkiPjxyZWN0IGNvZGVMaW5lPSIyIiBmaWxsPSIjRjFGMUYxIiBoZWlnaHQ9IjEzNy45MDYzIiBpZD0iQ2hlY2tPcGVuRGF5IiByeD0iMi41IiByeT0iMi41IiBzdHlsZT0ic3Ryb2tlOiMxODE4MTg7c3Ryb2tlLXdpZHRoOjAuNTsiIHdpZHRoPSI4MDMiIHg9IjIxLjUiIHk9IjM5Ii8+PGVsbGlwc2UgY3g9IjM3Ni43NSIgY3k9IjU1IiBmaWxsPSIjQUREMUIyIiByeD0iMTEiIHJ5PSIxMSIgc3R5bGU9InN0cm9rZTojMTgxODE4O3N0cm9rZS13aWR0aDoxLjA7Ii8+PHBhdGggZD0iTTM3NC4zNzUsNTkuMjUgTDM3NC4zNzUsNjEgTDM3OS4zMTI1LDYxIEwzNzkuMzEyNSw1OS4yNSBMMzc0LjM3NSw1OS4yNSBaIE0zNzUuMDYyNSw1OS45Mzc1IFEzNzUuMDYyNSw1OS45Mzc1IDM3NS4wNjI1LDUwLjc1IEwzNzMuMzEyNSw1MC43NSBRMzczLjMxMjUsNTAuNzUgMzczLjMxMjUsNTkuOTM3NSBMMzc1LjA2MjUsNTkuOTM3NSBaIE0zNzguNjI1LDU5LjkzNzUgTDM4MC4zNzUsNTkuOTM3NSBRMzgwLjM3NSw1OS45Mzc1IDM4MC4zNzUsNTcuMTI1IEwzNzguNjI1LDU3LjEyNSBRMzc4LjYyNSw1Ny4xMjUgMzc4LjYyNSw1OS45Mzc1IFogTTM3OC42MjUsNTAuNzUgUTM3OC42MjUsNTAuNzUgMzc4LjYyNSw1My41NjI1IEwzODAuMzc1LDUzLjU2MjUgUTM4MC4zNzUsNTMuNTYyNSAzODAuMzc1LDUwLjc1IEwzNzguNjI1LDUwLjc1IFogTTM3NC4zNzUsNTEuNDM3NSBMMzc5LjMxMjUsNTEuNDM3NSBMMzc5LjMxMjUsNDkuNjg3NSBMMzc0LjM3NSw0OS42ODc1IEwzNzQuMzc1LDUxLjQzNzUgWiAiIGZpbGw9IiMwMDAwMDAiLz48dGV4dCBmaWxsPSIjMDAwMDAwIiBmb250LWZhbWlseT0ic2Fucy1zZXJpZiIgZm9udC1zaXplPSIxNCIgbGVuZ3RoQWRqdXN0PSJzcGFjaW5nIiB0ZXh0TGVuZ3RoPSI4NCIgeD0iMzk3LjI1IiB5PSI2MC43NDIyIj5DaGVja09wZW5EYXk8L3RleHQ+PGxpbmUgc3R5bGU9InN0cm9rZTojMTgxODE4O3N0cm9rZS13aWR0aDowLjU7IiB4MT0iMjIuNSIgeDI9IjgyMy41IiB5MT0iNzEiIHkyPSI3MSIvPjxyZWN0IGZpbGw9Im5vbmUiIGhlaWdodD0iNiIgc3R5bGU9InN0cm9rZTojQzgyOTMwO3N0cm9rZS13aWR0aDoxLjA7IiB3aWR0aD0iNiIgeD0iMjkuNSIgeT0iODAuOTkyMiIvPjx0ZXh0IGZpbGw9IiMwMDAwMDAiIGZvbnQtZmFtaWx5PSJzYW5zLXNlcmlmIiBmb250LXNpemU9IjE0IiBsZW5ndGhBZGp1c3Q9InNwYWNpbmciIHRleHRMZW5ndGg9IjEyNiIgeD0iNDEuNSIgeT0iODguMjM0NCI+b3BlbkRheXM6IFN0cmluZ1tdPC90ZXh0PjxlbGxpcHNlIGN4PSIzMi41IiBjeT0iOTguOTc2NiIgZmlsbD0ibm9uZSIgcng9IjMiIHJ5PSIzIiBzdHlsZT0ic3Ryb2tlOiMwMzgwNDg7c3Ryb2tlLXdpZHRoOjEuMDsiLz48dGV4dCBmaWxsPSIjMDAwMDAwIiBmb250LWZhbWlseT0ic2Fucy1zZXJpZiIgZm9udC1zaXplPSIxNCIgbGVuZ3RoQWRqdXN0PSJzcGFjaW5nIiB0ZXh0TGVuZ3RoPSI3NzciIHg9IjQxLjUiIHk9IjEwMy4yMTg4Ij4icHJpdmF0ZSBzdGF0aWMgZmluYWwgU3RyaW5nW10gb3BlbkRheXMgPSB7XCJNb25kYXlcIiwgXCJUdWVzZGF5XCIsIFwiV2VkbmVzZGF5XCIsIFwiVGh1cnNkYXlcIiwgXCJGcmlkYXlcIn0iPC90ZXh0PjxsaW5lIHN0eWxlPSJzdHJva2U6IzE4MTgxODtzdHJva2Utd2lkdGg6MC41OyIgeDE9IjIyLjUiIHgyPSI4MjMuNSIgeTE9IjEwOC45Njg4IiB5Mj0iMTA4Ljk2ODgiLz48ZWxsaXBzZSBjeD0iMzIuNSIgY3k9IjEyMS45NjA5IiBmaWxsPSIjODRCRTg0IiByeD0iMyIgcnk9IjMiIHN0eWxlPSJzdHJva2U6IzAzODA0ODtzdHJva2Utd2lkdGg6MS4wOyIvPjx0ZXh0IGZpbGw9IiMwMDAwMDAiIGZvbnQtZmFtaWx5PSJzYW5zLXNlcmlmIiBmb250LXNpemU9IjE0IiBsZW5ndGhBZGp1c3Q9InNwYWNpbmciIHRleHRMZW5ndGg9IjIxOSIgeD0iNDEuNSIgeT0iMTI2LjIwMzEiPmlzT3BlbkRheShkYXk6IFN0cmluZyk6IGJvb2xlYW48L3RleHQ+PGVsbGlwc2UgY3g9IjMyLjUiIGN5PSIxMzYuOTQ1MyIgZmlsbD0iIzg0QkU4NCIgcng9IjMiIHJ5PSIzIiBzdHlsZT0ic3Ryb2tlOiMwMzgwNDg7c3Ryb2tlLXdpZHRoOjEuMDsiLz48dGV4dCBmaWxsPSIjMDAwMDAwIiBmb250LWZhbWlseT0ic2Fucy1zZXJpZiIgZm9udC1zaXplPSIxNCIgbGVuZ3RoQWRqdXN0PSJzcGFjaW5nIiB0ZXh0TGVuZ3RoPSIyMDUiIHg9IjQxLjUiIHk9IjE0MS4xODc1Ij5kYXlDaGVjayhzY25yOiBTY2FubmVyKTogdm9pZDwvdGV4dD48ZWxsaXBzZSBjeD0iMzIuNSIgY3k9IjE1MS45Mjk3IiBmaWxsPSIjODRCRTg0IiByeD0iMyIgcnk9IjMiIHN0eWxlPSJzdHJva2U6IzAzODA0ODtzdHJva2Utd2lkdGg6MS4wOyIvPjx0ZXh0IGZpbGw9IiMwMDAwMDAiIGZvbnQtZmFtaWx5PSJzYW5zLXNlcmlmIiBmb250LXNpemU9IjE0IiBsZW5ndGhBZGp1c3Q9InNwYWNpbmciIHRleHRMZW5ndGg9IjE1NiIgeD0iNDEuNSIgeT0iMTU2LjE3MTkiPmlzT3BlbkRheShkYXk6IFN0cmluZyk8L3RleHQ+PGVsbGlwc2UgY3g9IjMyLjUiIGN5PSIxNjYuOTE0MSIgZmlsbD0iIzg0QkU4NCIgcng9IjMiIHJ5PSIzIiBzdHlsZT0ic3Ryb2tlOiMwMzgwNDg7c3Ryb2tlLXdpZHRoOjEuMDsiLz48dGV4dCBmaWxsPSIjMDAwMDAwIiBmb250LWZhbWlseT0ic2Fucy1zZXJpZiIgZm9udC1zaXplPSIxNCIgbGVuZ3RoQWRqdXN0PSJzcGFjaW5nIiB0ZXh0TGVuZ3RoPSIxNjMiIHg9IjQxLjUiIHk9IjE3MS4xNTYzIj5kYXlDaGVjayhzY25yOiBTY2FubmVyKTwvdGV4dD48L2c+PCEtLVNSQz1bVE95bjJ5OG00OE50X2VlWktxTTUzazlHUzVCU25DNjJXdEt1cXdZN3pMQUlMOTNJX3N3aWpJaEtNdjl0eHBsa05PN29XWVM1dWFoTUpRUEg5QTBBbTlWQ3FMZ09kdk15aDBsNTJ4b3RuaEY2ZTV5ejZ5RjY2VUJKUmotUEdvM1JaZUdQdGpfNDg4UTNyaGIyX1lBenR3bThoTUpaSU9kQ29kWnFmWWJoazNmZWRmeVdpUHlLWFE0UkVXTk1lSUM5SHNCQ2twMVRGZlgxYk9nTFBoeWY1SUQ4SEw4Z3N1Y2pvbFhCOWtWSVZESklLRkVsSE4tNF9aRnhzSi03MWxLM10tLT48L2c+PC9zdmc+;" vertex="1" parent="1">
            <mxGeometry x="-830" y="710" width="847" height="200" as="geometry" />
          </mxCell>
        </UserObject>
        <UserObject label="" plantUmlData="{&#xa;  &quot;data&quot;: &quot;@startuml\n\npackage \&quot;mist4600\&quot; {\n    class ChangeLog {\n        - numTempChangesMade: int\n        - changes: ArrayList&lt;String&gt;\n        - suggestedChanges: ArrayList&lt;String&gt;\n        + printChangeLog(): void\n        + printSuggestedChangeLog(): void\n        + addChangesMade(): void\n        + delChangesMade(): void\n        + printNumTempChangesMade(): void\n        + tempPrintChangeLog(): void\n    }\n\n    ChangeLog : + \&quot;static int numTempChangesMade\&quot;\n    ChangeLog : + \&quot;static ArrayList&lt;String&gt; changes\&quot;\n    ChangeLog : + \&quot;static ArrayList&lt;String&gt; suggestedChanges\&quot;\n    ChangeLog : + printChangeLog()\n    ChangeLog : + printSuggestedChangeLog()\n    ChangeLog : + addChangesMade()\n    ChangeLog : + delChangesMade()\n    ChangeLog : + printNumTempChangesMade()\n    ChangeLog : + tempPrintChangeLog()\n}\n\n@enduml\n&quot;,&#xa;  &quot;format&quot;: &quot;svg&quot;&#xa;}" id="qgRuia4ycoHP86Sn3ILv-3">
          <mxCell style="shape=image;noLabel=1;verticalAlign=top;aspect=fixed;imageAspect=0;image=data:image/svg+xml,PD94bWwgdmVyc2lvbj0iMS4wIiBlbmNvZGluZz0idXMtYXNjaWkiIHN0YW5kYWxvbmU9Im5vIj8+PHN2ZyB4bWxucz0iaHR0cDovL3d3dy53My5vcmcvMjAwMC9zdmciIHhtbG5zOnhsaW5rPSJodHRwOi8vd3d3LnczLm9yZy8xOTk5L3hsaW5rIiBjb250ZW50U3R5bGVUeXBlPSJ0ZXh0L2NzcyIgaGVpZ2h0PSIzODBweCIgcHJlc2VydmVBc3BlY3RSYXRpbz0ibm9uZSIgc3R5bGU9IndpZHRoOjM3M3B4O2hlaWdodDozODBweDtiYWNrZ3JvdW5kOiNGRkZGRkY7IiB2ZXJzaW9uPSIxLjEiIHZpZXdCb3g9IjAgMCAzNzMgMzgwIiB3aWR0aD0iMzczcHgiIHpvb21BbmRQYW49Im1hZ25pZnkiPjxkZWZzLz48Zz48IS0tY2x1c3RlciBtaXN0NDYwMC0tPjxnIGlkPSJjbHVzdGVyX21pc3Q0NjAwIj48cGF0aCBkPSJNOC41LDYgTDY2LjUsNiBBMy43NSwzLjc1IDAgMCAxIDY5LDguNSBMNzYsMjYuOTg0NCBMMzYzLjUsMjYuOTg0NCBBMi41LDIuNSAwIDAgMSAzNjYsMjkuNDg0NCBMMzY2LDM3MC41IEEyLjUsMi41IDAgMCAxIDM2My41LDM3MyBMOC41LDM3MyBBMi41LDIuNSAwIDAgMSA2LDM3MC41IEw2LDguNSBBMi41LDIuNSAwIDAgMSA4LjUsNiAiIGZpbGw9Im5vbmUiIHN0eWxlPSJzdHJva2U6IzAwMDAwMDtzdHJva2Utd2lkdGg6MS41OyIvPjxsaW5lIHN0eWxlPSJzdHJva2U6IzAwMDAwMDtzdHJva2Utd2lkdGg6MS41OyIgeDE9IjYiIHgyPSI3NiIgeTE9IjI2Ljk4NDQiIHkyPSIyNi45ODQ0Ii8+PHRleHQgZmlsbD0iIzAwMDAwMCIgZm9udC1mYW1pbHk9InNhbnMtc2VyaWYiIGZvbnQtc2l6ZT0iMTQiIGZvbnQtd2VpZ2h0PSJib2xkIiBsZW5ndGhBZGp1c3Q9InNwYWNpbmciIHRleHRMZW5ndGg9IjU3IiB4PSIxMCIgeT0iMjEuMjM0NCI+bWlzdDQ2MDA8L3RleHQ+PC9nPjwhLS1jbGFzcyBDaGFuZ2VMb2ctLT48ZyBpZD0iZWxlbV9DaGFuZ2VMb2ciPjxyZWN0IGNvZGVMaW5lPSIyIiBmaWxsPSIjRjFGMUYxIiBoZWlnaHQ9IjMxNy43MTg4IiBpZD0iQ2hhbmdlTG9nIiByeD0iMi41IiByeT0iMi41IiBzdHlsZT0ic3Ryb2tlOiMxODE4MTg7c3Ryb2tlLXdpZHRoOjAuNTsiIHdpZHRoPSIzMjkiIHg9IjIxLjUiIHk9IjM5Ii8+PGVsbGlwc2UgY3g9IjE1MC4yNSIgY3k9IjU1IiBmaWxsPSIjQUREMUIyIiByeD0iMTEiIHJ5PSIxMSIgc3R5bGU9InN0cm9rZTojMTgxODE4O3N0cm9rZS13aWR0aDoxLjA7Ii8+PHBhdGggZD0iTTE0Ny44NzUsNTkuMjUgTDE0Ny44NzUsNjEgTDE1Mi44MTI1LDYxIEwxNTIuODEyNSw1OS4yNSBMMTQ3Ljg3NSw1OS4yNSBaIE0xNDguNTYyNSw1OS45Mzc1IFExNDguNTYyNSw1OS45Mzc1IDE0OC41NjI1LDUwLjc1IEwxNDYuODEyNSw1MC43NSBRMTQ2LjgxMjUsNTAuNzUgMTQ2LjgxMjUsNTkuOTM3NSBMMTQ4LjU2MjUsNTkuOTM3NSBaIE0xNTIuMTI1LDU5LjkzNzUgTDE1My44NzUsNTkuOTM3NSBRMTUzLjg3NSw1OS45Mzc1IDE1My44NzUsNTcuMTI1IEwxNTIuMTI1LDU3LjEyNSBRMTUyLjEyNSw1Ny4xMjUgMTUyLjEyNSw1OS45Mzc1IFogTTE1Mi4xMjUsNTAuNzUgUTE1Mi4xMjUsNTAuNzUgMTUyLjEyNSw1My41NjI1IEwxNTMuODc1LDUzLjU2MjUgUTE1My44NzUsNTMuNTYyNSAxNTMuODc1LDUwLjc1IEwxNTIuMTI1LDUwLjc1IFogTTE0Ny44NzUsNTEuNDM3NSBMMTUyLjgxMjUsNTEuNDM3NSBMMTUyLjgxMjUsNDkuNjg3NSBMMTQ3Ljg3NSw0OS42ODc1IEwxNDcuODc1LDUxLjQzNzUgWiAiIGZpbGw9IiMwMDAwMDAiLz48dGV4dCBmaWxsPSIjMDAwMDAwIiBmb250LWZhbWlseT0ic2Fucy1zZXJpZiIgZm9udC1zaXplPSIxNCIgbGVuZ3RoQWRqdXN0PSJzcGFjaW5nIiB0ZXh0TGVuZ3RoPSI2MyIgeD0iMTcwLjc1IiB5PSI2MC43NDIyIj5DaGFuZ2VMb2c8L3RleHQ+PGxpbmUgc3R5bGU9InN0cm9rZTojMTgxODE4O3N0cm9rZS13aWR0aDowLjU7IiB4MT0iMjIuNSIgeDI9IjM0OS41IiB5MT0iNzEiIHkyPSI3MSIvPjxyZWN0IGZpbGw9Im5vbmUiIGhlaWdodD0iNiIgc3R5bGU9InN0cm9rZTojQzgyOTMwO3N0cm9rZS13aWR0aDoxLjA7IiB3aWR0aD0iNiIgeD0iMjkuNSIgeT0iODAuOTkyMiIvPjx0ZXh0IGZpbGw9IiMwMDAwMDAiIGZvbnQtZmFtaWx5PSJzYW5zLXNlcmlmIiBmb250LXNpemU9IjE0IiBsZW5ndGhBZGp1c3Q9InNwYWNpbmciIHRleHRMZW5ndGg9IjE2MyIgeD0iNDEuNSIgeT0iODguMjM0NCI+bnVtVGVtcENoYW5nZXNNYWRlOiBpbnQ8L3RleHQ+PHJlY3QgZmlsbD0ibm9uZSIgaGVpZ2h0PSI2IiBzdHlsZT0ic3Ryb2tlOiNDODI5MzA7c3Ryb2tlLXdpZHRoOjEuMDsiIHdpZHRoPSI2IiB4PSIyOS41IiB5PSI5NS45NzY2Ii8+PHRleHQgZmlsbD0iIzAwMDAwMCIgZm9udC1mYW1pbHk9InNhbnMtc2VyaWYiIGZvbnQtc2l6ZT0iMTQiIGxlbmd0aEFkanVzdD0ic3BhY2luZyIgdGV4dExlbmd0aD0iMTgyIiB4PSI0MS41IiB5PSIxMDMuMjE4OCI+Y2hhbmdlczogQXJyYXlMaXN0Jmx0O1N0cmluZyZndDs8L3RleHQ+PHJlY3QgZmlsbD0ibm9uZSIgaGVpZ2h0PSI2IiBzdHlsZT0ic3Ryb2tlOiNDODI5MzA7c3Ryb2tlLXdpZHRoOjEuMDsiIHdpZHRoPSI2IiB4PSIyOS41IiB5PSIxMTAuOTYwOSIvPjx0ZXh0IGZpbGw9IiMwMDAwMDAiIGZvbnQtZmFtaWx5PSJzYW5zLXNlcmlmIiBmb250LXNpemU9IjE0IiBsZW5ndGhBZGp1c3Q9InNwYWNpbmciIHRleHRMZW5ndGg9IjI0NSIgeD0iNDEuNSIgeT0iMTE4LjIwMzEiPnN1Z2dlc3RlZENoYW5nZXM6IEFycmF5TGlzdCZsdDtTdHJpbmcmZ3Q7PC90ZXh0PjxlbGxpcHNlIGN4PSIzMi41IiBjeT0iMTI4Ljk0NTMiIGZpbGw9Im5vbmUiIHJ4PSIzIiByeT0iMyIgc3R5bGU9InN0cm9rZTojMDM4MDQ4O3N0cm9rZS13aWR0aDoxLjA7Ii8+PHRleHQgZmlsbD0iIzAwMDAwMCIgZm9udC1mYW1pbHk9InNhbnMtc2VyaWYiIGZvbnQtc2l6ZT0iMTQiIGxlbmd0aEFkanVzdD0ic3BhY2luZyIgdGV4dExlbmd0aD0iMjIxIiB4PSI0MS41IiB5PSIxMzMuMTg3NSI+InN0YXRpYyBpbnQgbnVtVGVtcENoYW5nZXNNYWRlIjwvdGV4dD48ZWxsaXBzZSBjeD0iMzIuNSIgY3k9IjE0My45Mjk3IiBmaWxsPSJub25lIiByeD0iMyIgcnk9IjMiIHN0eWxlPSJzdHJva2U6IzAzODA0ODtzdHJva2Utd2lkdGg6MS4wOyIvPjx0ZXh0IGZpbGw9IiMwMDAwMDAiIGZvbnQtZmFtaWx5PSJzYW5zLXNlcmlmIiBmb250LXNpemU9IjE0IiBsZW5ndGhBZGp1c3Q9InNwYWNpbmciIHRleHRMZW5ndGg9IjI0MCIgeD0iNDEuNSIgeT0iMTQ4LjE3MTkiPiJzdGF0aWMgQXJyYXlMaXN0Jmx0O1N0cmluZyZndDsgY2hhbmdlcyI8L3RleHQ+PGVsbGlwc2UgY3g9IjMyLjUiIGN5PSIxNTguOTE0MSIgZmlsbD0ibm9uZSIgcng9IjMiIHJ5PSIzIiBzdHlsZT0ic3Ryb2tlOiMwMzgwNDg7c3Ryb2tlLXdpZHRoOjEuMDsiLz48dGV4dCBmaWxsPSIjMDAwMDAwIiBmb250LWZhbWlseT0ic2Fucy1zZXJpZiIgZm9udC1zaXplPSIxNCIgbGVuZ3RoQWRqdXN0PSJzcGFjaW5nIiB0ZXh0TGVuZ3RoPSIzMDMiIHg9IjQxLjUiIHk9IjE2My4xNTYzIj4ic3RhdGljIEFycmF5TGlzdCZsdDtTdHJpbmcmZ3Q7IHN1Z2dlc3RlZENoYW5nZXMiPC90ZXh0PjxsaW5lIHN0eWxlPSJzdHJva2U6IzE4MTgxODtzdHJva2Utd2lkdGg6MC41OyIgeDE9IjIyLjUiIHgyPSIzNDkuNSIgeTE9IjE2OC45MDYzIiB5Mj0iMTY4LjkwNjMiLz48ZWxsaXBzZSBjeD0iMzIuNSIgY3k9IjE4MS44OTg0IiBmaWxsPSIjODRCRTg0IiByeD0iMyIgcnk9IjMiIHN0eWxlPSJzdHJva2U6IzAzODA0ODtzdHJva2Utd2lkdGg6MS4wOyIvPjx0ZXh0IGZpbGw9IiMwMDAwMDAiIGZvbnQtZmFtaWx5PSJzYW5zLXNlcmlmIiBmb250LXNpemU9IjE0IiBsZW5ndGhBZGp1c3Q9InNwYWNpbmciIHRleHRMZW5ndGg9IjE1NiIgeD0iNDEuNSIgeT0iMTg2LjE0MDYiPnByaW50Q2hhbmdlTG9nKCk6IHZvaWQ8L3RleHQ+PGVsbGlwc2UgY3g9IjMyLjUiIGN5PSIxOTYuODgyOCIgZmlsbD0iIzg0QkU4NCIgcng9IjMiIHJ5PSIzIiBzdHlsZT0ic3Ryb2tlOiMwMzgwNDg7c3Ryb2tlLXdpZHRoOjEuMDsiLz48dGV4dCBmaWxsPSIjMDAwMDAwIiBmb250LWZhbWlseT0ic2Fucy1zZXJpZiIgZm9udC1zaXplPSIxNCIgbGVuZ3RoQWRqdXN0PSJzcGFjaW5nIiB0ZXh0TGVuZ3RoPSIyMTkiIHg9IjQxLjUiIHk9IjIwMS4xMjUiPnByaW50U3VnZ2VzdGVkQ2hhbmdlTG9nKCk6IHZvaWQ8L3RleHQ+PGVsbGlwc2UgY3g9IjMyLjUiIGN5PSIyMTEuODY3MiIgZmlsbD0iIzg0QkU4NCIgcng9IjMiIHJ5PSIzIiBzdHlsZT0ic3Ryb2tlOiMwMzgwNDg7c3Ryb2tlLXdpZHRoOjEuMDsiLz48dGV4dCBmaWxsPSIjMDAwMDAwIiBmb250LWZhbWlseT0ic2Fucy1zZXJpZiIgZm9udC1zaXplPSIxNCIgbGVuZ3RoQWRqdXN0PSJzcGFjaW5nIiB0ZXh0TGVuZ3RoPSIxNTYiIHg9IjQxLjUiIHk9IjIxNi4xMDk0Ij5hZGRDaGFuZ2VzTWFkZSgpOiB2b2lkPC90ZXh0PjxlbGxpcHNlIGN4PSIzMi41IiBjeT0iMjI2Ljg1MTYiIGZpbGw9IiM4NEJFODQiIHJ4PSIzIiByeT0iMyIgc3R5bGU9InN0cm9rZTojMDM4MDQ4O3N0cm9rZS13aWR0aDoxLjA7Ii8+PHRleHQgZmlsbD0iIzAwMDAwMCIgZm9udC1mYW1pbHk9InNhbnMtc2VyaWYiIGZvbnQtc2l6ZT0iMTQiIGxlbmd0aEFkanVzdD0ic3BhY2luZyIgdGV4dExlbmd0aD0iMTU2IiB4PSI0MS41IiB5PSIyMzEuMDkzOCI+ZGVsQ2hhbmdlc01hZGUoKTogdm9pZDwvdGV4dD48ZWxsaXBzZSBjeD0iMzIuNSIgY3k9IjI0MS44MzU5IiBmaWxsPSIjODRCRTg0IiByeD0iMyIgcnk9IjMiIHN0eWxlPSJzdHJva2U6IzAzODA0ODtzdHJva2Utd2lkdGg6MS4wOyIvPjx0ZXh0IGZpbGw9IiMwMDAwMDAiIGZvbnQtZmFtaWx5PSJzYW5zLXNlcmlmIiBmb250LXNpemU9IjE0IiBsZW5ndGhBZGp1c3Q9InNwYWNpbmciIHRleHRMZW5ndGg9IjIyMSIgeD0iNDEuNSIgeT0iMjQ2LjA3ODEiPnByaW50TnVtVGVtcENoYW5nZXNNYWRlKCk6IHZvaWQ8L3RleHQ+PGVsbGlwc2UgY3g9IjMyLjUiIGN5PSIyNTYuODIwMyIgZmlsbD0iIzg0QkU4NCIgcng9IjMiIHJ5PSIzIiBzdHlsZT0ic3Ryb2tlOiMwMzgwNDg7c3Ryb2tlLXdpZHRoOjEuMDsiLz48dGV4dCBmaWxsPSIjMDAwMDAwIiBmb250LWZhbWlseT0ic2Fucy1zZXJpZiIgZm9udC1zaXplPSIxNCIgbGVuZ3RoQWRqdXN0PSJzcGFjaW5nIiB0ZXh0TGVuZ3RoPSIxODUiIHg9IjQxLjUiIHk9IjI2MS4wNjI1Ij50ZW1wUHJpbnRDaGFuZ2VMb2coKTogdm9pZDwvdGV4dD48ZWxsaXBzZSBjeD0iMzIuNSIgY3k9IjI3MS44MDQ3IiBmaWxsPSIjODRCRTg0IiByeD0iMyIgcnk9IjMiIHN0eWxlPSJzdHJva2U6IzAzODA0ODtzdHJva2Utd2lkdGg6MS4wOyIvPjx0ZXh0IGZpbGw9IiMwMDAwMDAiIGZvbnQtZmFtaWx5PSJzYW5zLXNlcmlmIiBmb250LXNpemU9IjE0IiBsZW5ndGhBZGp1c3Q9InNwYWNpbmciIHRleHRMZW5ndGg9IjExNCIgeD0iNDEuNSIgeT0iMjc2LjA0NjkiPnByaW50Q2hhbmdlTG9nKCk8L3RleHQ+PGVsbGlwc2UgY3g9IjMyLjUiIGN5PSIyODYuNzg5MSIgZmlsbD0iIzg0QkU4NCIgcng9IjMiIHJ5PSIzIiBzdHlsZT0ic3Ryb2tlOiMwMzgwNDg7c3Ryb2tlLXdpZHRoOjEuMDsiLz48dGV4dCBmaWxsPSIjMDAwMDAwIiBmb250LWZhbWlseT0ic2Fucy1zZXJpZiIgZm9udC1zaXplPSIxNCIgbGVuZ3RoQWRqdXN0PSJzcGFjaW5nIiB0ZXh0TGVuZ3RoPSIxNzciIHg9IjQxLjUiIHk9IjI5MS4wMzEzIj5wcmludFN1Z2dlc3RlZENoYW5nZUxvZygpPC90ZXh0PjxlbGxpcHNlIGN4PSIzMi41IiBjeT0iMzAxLjc3MzQiIGZpbGw9IiM4NEJFODQiIHJ4PSIzIiByeT0iMyIgc3R5bGU9InN0cm9rZTojMDM4MDQ4O3N0cm9rZS13aWR0aDoxLjA7Ii8+PHRleHQgZmlsbD0iIzAwMDAwMCIgZm9udC1mYW1pbHk9InNhbnMtc2VyaWYiIGZvbnQtc2l6ZT0iMTQiIGxlbmd0aEFkanVzdD0ic3BhY2luZyIgdGV4dExlbmd0aD0iMTE0IiB4PSI0MS41IiB5PSIzMDYuMDE1NiI+YWRkQ2hhbmdlc01hZGUoKTwvdGV4dD48ZWxsaXBzZSBjeD0iMzIuNSIgY3k9IjMxNi43NTc4IiBmaWxsPSIjODRCRTg0IiByeD0iMyIgcnk9IjMiIHN0eWxlPSJzdHJva2U6IzAzODA0ODtzdHJva2Utd2lkdGg6MS4wOyIvPjx0ZXh0IGZpbGw9IiMwMDAwMDAiIGZvbnQtZmFtaWx5PSJzYW5zLXNlcmlmIiBmb250LXNpemU9IjE0IiBsZW5ndGhBZGp1c3Q9InNwYWNpbmciIHRleHRMZW5ndGg9IjExNCIgeD0iNDEuNSIgeT0iMzIxIj5kZWxDaGFuZ2VzTWFkZSgpPC90ZXh0PjxlbGxpcHNlIGN4PSIzMi41IiBjeT0iMzMxLjc0MjIiIGZpbGw9IiM4NEJFODQiIHJ4PSIzIiByeT0iMyIgc3R5bGU9InN0cm9rZTojMDM4MDQ4O3N0cm9rZS13aWR0aDoxLjA7Ii8+PHRleHQgZmlsbD0iIzAwMDAwMCIgZm9udC1mYW1pbHk9InNhbnMtc2VyaWYiIGZvbnQtc2l6ZT0iMTQiIGxlbmd0aEFkanVzdD0ic3BhY2luZyIgdGV4dExlbmd0aD0iMTc5IiB4PSI0MS41IiB5PSIzMzUuOTg0NCI+cHJpbnROdW1UZW1wQ2hhbmdlc01hZGUoKTwvdGV4dD48ZWxsaXBzZSBjeD0iMzIuNSIgY3k9IjM0Ni43MjY2IiBmaWxsPSIjODRCRTg0IiByeD0iMyIgcnk9IjMiIHN0eWxlPSJzdHJva2U6IzAzODA0ODtzdHJva2Utd2lkdGg6MS4wOyIvPjx0ZXh0IGZpbGw9IiMwMDAwMDAiIGZvbnQtZmFtaWx5PSJzYW5zLXNlcmlmIiBmb250LXNpemU9IjE0IiBsZW5ndGhBZGp1c3Q9InNwYWNpbmciIHRleHRMZW5ndGg9IjE0MyIgeD0iNDEuNSIgeT0iMzUwLjk2ODgiPnRlbXBQcmludENoYW5nZUxvZygpPC90ZXh0PjwvZz48IS0tU1JDPVtiUDdCMmk4bTQ0TnRfT2dYQXFNNEJpSDU0NDZ3aElCSzdtWDlZQzYtUTU5MWZGemtzbGdld1JKWVIwQVBTc1U2VW1sQUJiR0F5NUVicE1lVDEzeFNGUjM1NGdlclg2VVFJSDdieWxkUnIxQW9BWnM5akVZUVVhLXY4QTBvcW9ET3JvQW1BcWp3WS1waUpNbkFiU2JqM3pBTGo4bUhGRm5EQncybTctUHpwc25FdTllaHhXQm56cW9TZjlwdFJhUzBCZjlmZURycjZEWTBhQ09Jbl83SlF3enpGWnVKZ182cmVLUW5uYkY0UXR6MkNKM21iU0hfOFpTUEpFdGNDT1BXWUkyaWNtYzJrQWNDUlNIb0dMV2k2UXotMDAwMF0tLT48L2c+PC9zdmc+;" vertex="1" parent="1">
            <mxGeometry x="120" y="690" width="373" height="380" as="geometry" />
          </mxCell>
        </UserObject>
      </root>
    </mxGraphModel>
  </diagram>
</mxfile>
